<?xml version="1.0" encoding="UTF-8"?>
<svg xmlns="http://www.w3.org/2000/svg" xmlns:xlink="http://www.w3.org/1999/xlink" width="779.31pt" height="222.65pt" viewBox="0 0 779.31 222.65" version="1.1">
<defs>
<clipPath id="clip1">
  <path d="M 735 21 L 779.308594 21 L 779.308594 68 L 735 68 Z M 735 21 "/>
</clipPath>
<clipPath id="clip2">
  <path d="M 734 105 L 779.308594 105 L 779.308594 152 L 734 152 Z M 734 105 "/>
</clipPath>
</defs>
<g id="surface1">
<path style=" stroke:none;fill-rule:evenodd;fill:rgb(0.799561%,1.199341%,1.199341%);fill-opacity:1;" d="M 237.097656 198.726563 L 233.492188 207.40625 L 240.75 207.40625 Z M 225.214844 216.140625 C 226.0625 216.050781 226.839844 215.910156 227.394531 215.179688 C 227.832031 214.621094 228.617188 213.027344 229.765625 210.339844 L 237.453125 192.25 L 238.652344 192.25 L 247.824219 213.109375 C 248.429688 214.496094 248.875 215.273438 249.164063 215.539063 C 249.652344 215.957031 250.511719 216.066406 251.121094 216.148438 L 251.121094 217.511719 L 241.113281 217.511719 L 241.113281 216.132813 C 241.832031 216.070313 242.726563 216.082031 243.402344 215.800781 C 243.507813 215.746094 243.636719 215.597656 243.636719 215.125 C 243.636719 214.570313 243.203125 213.40625 242.996094 212.910156 L 241.578125 209.628906 L 232.542969 209.628906 C 231.660156 211.863281 231.121094 213.242188 230.941406 213.746094 C 230.773438 214.265625 230.699219 214.636719 230.699219 214.875 C 230.699219 215.363281 230.875 215.65625 231.226563 215.820313 C 231.683594 216.027344 232.667969 216.085938 233.179688 216.132813 L 233.179688 217.511719 L 225.214844 217.511719 L 225.214844 216.140625 "/>
<path style=" stroke:none;fill-rule:nonzero;fill:rgb(0.799561%,1.199341%,1.199341%);fill-opacity:1;" d="M 277.121094 194.074219 C 276.433594 194.117188 274.832031 194.207031 274.277344 194.710938 C 274.003906 194.957031 273.773438 195.644531 273.773438 196.992188 L 273.773438 208.636719 C 273.773438 210.519531 274.03125 211.941406 274.523438 212.933594 C 275.410156 214.71875 277.097656 215.644531 279.714844 215.644531 C 285.179688 215.644531 286.1875 212.441406 286.1875 207.871094 L 286.1875 198.394531 C 286.1875 196.386719 285.9375 195.304688 285.578125 194.933594 C 284.957031 194.273438 283.59375 194.132813 282.773438 194.058594 L 282.773438 192.671875 L 291.949219 192.671875 L 291.949219 194.058594 C 291.152344 194.144531 289.652344 194.296875 289.09375 194.992188 C 288.765625 195.390625 288.535156 196.46875 288.535156 198.394531 L 288.535156 207.871094 C 288.535156 210.414063 288.144531 212.441406 287.328125 213.933594 C 285.816406 216.6875 282.957031 218.019531 278.890625 218.019531 C 274.882813 218.019531 272.046875 216.710938 270.535156 214 C 269.71875 212.539063 269.328125 210.65625 269.328125 208.367188 L 269.328125 196.992188 C 269.328125 195.65625 269.105469 194.96875 268.832031 194.726563 C 268.300781 194.222656 266.722656 194.117188 266.046875 194.058594 L 266.046875 192.671875 L 277.121094 192.671875 L 277.121094 194.074219 "/>
<path style=" stroke:none;fill-rule:nonzero;fill:rgb(0.799561%,1.199341%,1.199341%);fill-opacity:1;" d="M 311.582031 213.480469 C 312.957031 215.097656 314.648438 215.894531 316.683594 215.894531 C 317.75 215.894531 318.667969 215.546875 319.445313 214.878906 C 320.195313 214.226563 320.589844 213.308594 320.589844 212.082031 C 320.589844 211 320.210938 210.066406 319.417969 209.257813 C 318.15625 207.984375 314.285156 205.753906 312.855469 204.859375 C 311.898438 204.265625 311.121094 203.644531 310.535156 203.007813 C 309.453125 201.789063 308.890625 200.445313 308.890625 198.945313 C 308.890625 194.828125 311.929688 192.152344 315.949219 192.152344 C 316.839844 192.152344 317.886719 192.378906 319.0625 192.800781 C 320.277344 193.214844 320.863281 193.382813 320.945313 193.382813 C 321.359375 193.382813 321.519531 193.28125 321.582031 193.199219 C 321.824219 192.902344 321.898438 192.519531 321.988281 192.152344 L 323.367188 192.152344 L 324.246094 200.652344 L 322.667969 200.652344 C 322.203125 198.855469 321.492188 196.835938 319.878906 195.703125 C 318.625 194.796875 317.402344 194.378906 316.21875 194.378906 C 314.445313 194.378906 312.875 195.421875 312.875 197.332031 C 312.875 198.183594 313.136719 198.902344 313.640625 199.480469 C 314.171875 200.117188 315.023438 200.796875 316.195313 201.523438 L 319.394531 203.503906 C 321.417969 204.738281 322.871094 205.894531 323.730469 206.984375 C 324.59375 208.101563 325.019531 209.414063 325.019531 210.917969 C 325.019531 212.925781 324.253906 214.621094 322.730469 215.96875 C 321.210938 217.324219 319.285156 217.992188 316.964844 217.992188 C 315.796875 217.992188 314.566406 217.761719 313.304688 217.324219 C 312.039063 216.886719 311.425781 216.710938 311.328125 216.710938 C 310.972656 216.710938 310.839844 216.808594 310.78125 216.902344 C 310.601563 217.242188 310.558594 217.554688 310.492188 217.941406 L 309.054688 217.941406 L 307.859375 209.4375 L 309.386719 209.4375 C 309.921875 210.875 310.574219 212.292969 311.582031 213.480469 "/>
<path style=" stroke:none;fill-rule:nonzero;fill:rgb(0.799561%,1.199341%,1.199341%);fill-opacity:1;" d="M 363.238281 192.664063 L 363.453125 199.597656 L 361.898438 199.597656 C 361.667969 198.589844 361.21875 196.519531 360.3125 195.726563 C 359.773438 195.242188 358.542969 194.933594 356.417969 194.933594 L 354.773438 194.933594 L 354.773438 213.183594 C 354.773438 214.621094 354.996094 215.304688 355.277344 215.523438 C 355.867188 215.96875 357.609375 216.070313 358.308594 216.132813 L 358.308594 217.511719 L 346.945313 217.511719 L 346.945313 216.132813 C 349.980469 215.894531 350.394531 215.882813 350.394531 212.761719 L 350.394531 194.933594 L 348.746094 194.933594 C 346.730469 194.933594 345.46875 195.226563 344.847656 195.71875 C 343.878906 196.488281 343.484375 198.5625 343.285156 199.597656 L 341.699219 199.597656 L 341.945313 192.664063 L 363.238281 192.664063 "/>
<path style=" stroke:none;fill-rule:evenodd;fill:rgb(0.799561%,1.199341%,1.199341%);fill-opacity:1;" d="M 393.773438 199.378906 C 393.773438 197.390625 392.980469 196.097656 391.402344 195.390625 C 390.542969 195.015625 389.371094 194.808594 387.878906 194.808594 C 386.804688 194.808594 386.300781 194.902344 386.175781 194.976563 C 386.128906 195.007813 386.011719 195.15625 386.011719 195.695313 L 386.011719 204.28125 C 388.410156 204.175781 390.105469 203.910156 391.113281 203.511719 C 392.898438 202.769531 393.773438 201.421875 393.773438 199.378906 M 381.128906 215.421875 C 381.375 215.125 381.566406 214.304688 381.566406 212.761719 L 381.566406 196.992188 C 381.566406 195.703125 381.351563 195.019531 381.078125 194.746094 C 380.597656 194.222656 379.089844 194.117188 378.433594 194.0625 L 378.433594 192.664063 L 388.882813 192.664063 C 391.019531 192.664063 392.8125 192.941406 394.269531 193.496094 C 397.054688 194.5625 398.484375 196.546875 398.484375 199.40625 C 398.484375 201.316406 397.863281 202.8125 396.574219 203.878906 C 395.460938 204.796875 394.011719 205.421875 392.234375 205.769531 L 399.328125 214.503906 C 400.328125 215.730469 401.027344 215.984375 402.574219 216.132813 L 402.574219 217.511719 L 396.152344 217.511719 L 387.476563 206.308594 L 386.011719 206.386719 L 386.011719 213.183594 C 386.011719 214.5625 386.21875 215.242188 386.484375 215.480469 C 387.03125 215.957031 388.617188 216.070313 389.292969 216.132813 L 389.292969 217.511719 L 378.433594 217.511719 L 378.433594 216.132813 C 379.054688 216.070313 380.699219 215.945313 381.128906 215.421875 "/>
<path style=" stroke:none;fill-rule:evenodd;fill:rgb(0.799561%,1.199341%,1.199341%);fill-opacity:1;" d="M 427.832031 198.726563 L 424.226563 207.40625 L 431.476563 207.40625 Z M 415.949219 216.140625 C 416.796875 216.050781 417.574219 215.910156 418.128906 215.179688 C 418.558594 214.621094 419.351563 213.027344 420.5 210.339844 L 428.1875 192.25 L 429.390625 192.25 L 438.558594 213.109375 C 439.167969 214.496094 439.609375 215.273438 439.898438 215.539063 C 440.382813 215.957031 441.25 216.066406 441.855469 216.148438 L 441.855469 217.511719 L 431.847656 217.511719 L 431.847656 216.132813 C 432.566406 216.070313 433.464844 216.082031 434.136719 215.800781 C 434.242188 215.746094 434.367188 215.597656 434.367188 215.125 C 434.367188 214.570313 433.9375 213.40625 433.730469 212.910156 L 432.316406 209.628906 L 423.277344 209.628906 C 422.394531 211.863281 421.855469 213.242188 421.671875 213.746094 C 421.5 214.257813 421.433594 214.636719 421.433594 214.875 C 421.433594 215.363281 421.609375 215.65625 421.960938 215.820313 C 422.417969 216.027344 423.402344 216.085938 423.914063 216.132813 L 423.914063 217.511719 L 415.949219 217.511719 L 415.949219 216.140625 "/>
<path style=" stroke:none;fill-rule:nonzero;fill:rgb(0.799561%,1.199341%,1.199341%);fill-opacity:1;" d="M 459.417969 215.480469 C 459.664063 215.257813 459.886719 214.585938 459.886719 213.191406 L 459.886719 196.992188 C 459.886719 195.6875 459.679688 195 459.402344 194.726563 C 458.898438 194.207031 457.351563 194.117188 456.6875 194.0625 L 456.6875 192.671875 L 467.730469 192.671875 L 467.730469 194.074219 C 466.988281 194.117188 465.507813 194.175781 464.886719 194.664063 C 464.582031 194.917969 464.351563 195.539063 464.351563 196.738281 L 464.351563 214.234375 C 464.351563 214.605469 464.402344 214.84375 464.5 215.007813 C 464.546875 215.085938 464.683594 215.199219 465.121094 215.25 L 465.953125 215.316406 L 467.640625 215.332031 C 470.886719 215.332031 472.988281 215.066406 474.039063 214.570313 C 475.535156 213.875 476.640625 211.738281 477.269531 210.453125 L 478.921875 210.453125 L 476.9375 217.511719 L 456.6875 217.511719 L 456.6875 216.140625 C 457.339844 216.070313 458.894531 215.925781 459.417969 215.480469 "/>
<path style=" stroke:none;fill-rule:nonzero;fill:rgb(0.799561%,1.199341%,1.199341%);fill-opacity:1;" d="M 496.691406 215.523438 C 496.976563 215.304688 497.210938 214.621094 497.210938 213.183594 L 497.210938 196.992188 C 497.210938 195.644531 496.976563 194.945313 496.679688 194.695313 C 496.101563 194.167969 494.390625 194.109375 493.671875 194.074219 L 493.671875 192.664063 L 505.1875 192.664063 L 505.1875 194.082031 C 504.476563 194.109375 502.773438 194.167969 502.191406 194.695313 C 501.886719 194.945313 501.65625 195.644531 501.65625 196.992188 L 501.65625 213.183594 C 501.65625 214.621094 501.894531 215.304688 502.167969 215.523438 C 502.757813 215.96875 504.492188 216.070313 505.1875 216.132813 L 505.1875 217.511719 L 493.671875 217.511719 L 493.671875 216.132813 C 494.367188 216.070313 496.109375 215.96875 496.691406 215.523438 "/>
<path style=" stroke:none;fill-rule:evenodd;fill:rgb(0.799561%,1.199341%,1.199341%);fill-opacity:1;" d="M 532.191406 198.726563 L 528.582031 207.40625 L 535.835938 207.40625 Z M 520.308594 216.140625 C 521.152344 216.050781 521.929688 215.910156 522.484375 215.179688 C 522.914063 214.621094 523.710938 213.027344 524.847656 210.339844 L 532.546875 192.25 L 533.746094 192.25 L 542.914063 213.109375 C 543.515625 214.496094 543.96875 215.273438 544.257813 215.539063 C 544.738281 215.957031 545.605469 216.066406 546.210938 216.148438 L 546.210938 217.511719 L 536.195313 217.511719 L 536.195313 216.132813 C 536.914063 216.070313 537.8125 216.082031 538.484375 215.800781 C 538.597656 215.746094 538.722656 215.597656 538.722656 215.125 C 538.722656 214.570313 538.296875 213.40625 538.078125 212.910156 L 536.671875 209.628906 L 527.632813 209.628906 C 526.746094 211.863281 526.210938 213.242188 526.027344 213.746094 C 525.863281 214.257813 525.78125 214.636719 525.78125 214.875 C 525.78125 215.363281 525.96875 215.65625 526.316406 215.820313 C 526.769531 216.027344 527.761719 216.085938 528.269531 216.132813 L 528.269531 217.511719 L 520.308594 217.511719 L 520.308594 216.140625 "/>
<path style=" stroke:none;fill-rule:evenodd;fill:rgb(0.799561%,1.199341%,1.199341%);fill-opacity:1;" d="M 608.539063 25.601563 L 608.539063 43.484375 L 612.339844 43.484375 C 617.851563 43.484375 622.21875 39.121094 622.21875 33.988281 C 622.21875 28.855469 617.851563 24.863281 612.339844 24.863281 C 612.339844 24.863281 610.554688 24.652344 608.539063 25.601563 M 630.011719 33.988281 C 630.066406 39.121094 625.835938 43.585938 619.746094 45.390625 L 632.953125 62.6875 C 634.285156 64.203125 635.523438 66.007813 637.332031 66.007813 L 637.613281 66.007813 L 637.613281 67.246094 L 627.347656 67.246094 L 611.480469 46.339844 L 608.539063 46.339844 L 608.539063 61.261719 C 608.539063 64.300781 609.777344 66.007813 612.714844 66.007813 L 613.003906 66.007813 L 613.003906 67.246094 L 596.65625 67.246094 L 596.65625 66.007813 L 597.140625 66.007813 C 599.984375 66.007813 601.21875 64.300781 601.21875 61.261719 L 601.21875 27.910156 C 601.21875 24.957031 599.984375 23.152344 597.140625 23.152344 L 596.65625 23.152344 L 596.65625 21.921875 L 608.539063 21.921875 C 626.019531 20.96875 629.9375 26.796875 630.011719 33.988281 "/>
<path style=" stroke:none;fill-rule:nonzero;fill:rgb(0.799561%,1.199341%,1.199341%);fill-opacity:1;" d="M 250.722656 67.054688 L 250.722656 65.441406 L 248.15625 65.441406 C 245.394531 65.441406 243.121094 62.878906 243.121094 60.027344 L 243.121094 14.414063 L 253.667969 14.414063 C 258.039063 14.414063 260.699219 17.644531 260.988281 24.011719 L 262.410156 24.011719 L 261.839844 10.328125 C 261.839844 10.136719 261.550781 9.851563 261.460938 9.851563 L 215.1875 9.851563 C 215.1875 9.851563 214.808594 10.136719 214.808594 10.328125 L 214.230469 24.011719 L 215.757813 24.011719 C 216.03125 17.644531 218.699219 14.414063 223.070313 14.414063 L 233.617188 14.414063 L 233.617188 60.027344 C 233.617188 62.878906 231.335938 65.441406 228.488281 65.441406 L 225.824219 65.441406 L 225.824219 67.054688 L 250.722656 67.054688 "/>
<path style=" stroke:none;fill-rule:nonzero;fill:rgb(0.799561%,1.199341%,1.199341%);fill-opacity:1;" d="M 425.046875 15.457031 C 425.046875 12.703125 423.425781 11.46875 421.238281 11.46875 L 419.0625 11.46875 L 419.0625 9.753906 L 435.492188 9.753906 L 435.492188 11.46875 L 433.597656 11.46875 C 431.128906 11.46875 429.699219 12.703125 429.699219 15.457031 L 429.699219 48.722656 C 429.699219 59.453125 421.433594 67.71875 407.839844 67.71875 C 394.253906 67.71875 385.320313 59.261719 385.320313 47.765625 L 385.320313 16.785156 C 385.320313 14.03125 383.136719 11.46875 380.1875 11.46875 L 379.523438 11.46875 L 379.523438 9.753906 L 400.617188 9.753906 L 400.617188 11.46875 L 399.863281 11.46875 C 397.011719 11.46875 394.738281 14.03125 394.738281 16.785156 L 394.738281 48.050781 C 394.738281 56.410156 399.960938 63.160156 408.699219 63.160156 C 417.0625 63.160156 425.046875 58.125 425.046875 48.722656 L 425.046875 15.457031 "/>
<path style=" stroke:none;fill-rule:nonzero;fill:rgb(0.799561%,1.199341%,1.199341%);fill-opacity:1;" d="M 297.855469 45.488281 L 278.46875 45.488281 L 278.46875 61.070313 C 278.46875 64.109375 279.707031 65.820313 282.558594 65.820313 L 282.847656 65.820313 L 282.847656 67.054688 L 266.585938 67.054688 L 266.585938 65.820313 L 266.875 65.820313 C 270.007813 65.820313 270.964844 64.109375 270.964844 61.070313 L 270.964844 27.710938 C 270.964844 24.769531 270.007813 22.964844 266.875 22.964844 L 266.585938 22.964844 L 266.585938 21.730469 L 282.847656 21.730469 L 282.847656 22.964844 L 282.558594 22.964844 C 279.707031 22.964844 278.46875 24.769531 278.46875 27.710938 L 278.46875 42.253906 L 297.855469 42.253906 L 297.855469 27.710938 C 297.855469 24.769531 296.617188 22.964844 293.582031 22.964844 L 293.300781 22.964844 L 293.300781 21.730469 L 309.734375 21.730469 L 309.734375 22.964844 L 309.253906 22.964844 C 306.3125 22.964844 305.171875 24.769531 305.171875 27.710938 L 305.171875 61.070313 C 305.171875 64.109375 306.3125 65.820313 309.253906 65.820313 L 309.734375 65.820313 L 309.734375 67.054688 L 293.300781 67.054688 L 293.300781 65.820313 L 293.582031 65.820313 C 296.617188 65.820313 297.855469 64.109375 297.855469 61.070313 L 297.855469 45.488281 "/>
<path style=" stroke:none;fill-rule:nonzero;fill:rgb(0.799561%,1.199341%,1.199341%);fill-opacity:1;" d="M 326.929688 44.722656 L 326.929688 61.449219 C 326.929688 62.78125 327.980469 63.734375 329.21875 63.734375 L 340.617188 63.734375 C 346.890625 63.734375 349.742188 60.023438 351.253906 54.898438 L 352.597656 54.898438 L 348.789063 67.054688 L 315.054688 67.054688 L 315.054688 65.820313 L 315.34375 65.820313 C 318.285156 65.820313 319.523438 64.113281 319.523438 61.070313 L 319.523438 27.71875 C 319.523438 24.769531 318.285156 22.964844 315.34375 22.964844 L 315.054688 22.964844 L 315.054688 21.726563 L 347.742188 21.726563 L 348.507813 32.085938 L 347.359375 32.085938 C 347.078125 27.339844 344.417969 24.769531 340.996094 24.769531 L 326.929688 24.769531 L 326.929688 41.304688 L 340.046875 41.304688 C 342.234375 41.304688 343.277344 38.929688 343.277344 37.027344 L 343.277344 36.746094 L 344.605469 36.746094 L 344.605469 49.28125 L 343.277344 49.28125 L 343.277344 49.007813 C 343.277344 46.90625 342.234375 44.722656 340.046875 44.722656 L 326.929688 44.722656 "/>
<path style=" stroke:none;fill-rule:nonzero;fill:rgb(0.799561%,1.199341%,1.199341%);fill-opacity:1;" d="M 500.210938 61.066406 C 500.210938 64.113281 501.449219 65.820313 504.390625 65.820313 L 504.574219 65.820313 L 504.574219 67.054688 L 488.425781 67.054688 L 488.425781 65.820313 L 488.617188 65.820313 C 491.753906 65.820313 492.988281 64.113281 492.988281 61.066406 L 492.988281 27.71875 C 492.988281 24.769531 491.753906 22.960938 488.617188 22.960938 L 488.425781 22.960938 L 488.425781 21.730469 L 504.574219 21.730469 L 504.574219 22.960938 L 504.390625 22.960938 C 501.449219 22.960938 500.210938 24.769531 500.210938 27.71875 L 500.210938 61.066406 "/>
<path style=" stroke:none;fill-rule:nonzero;fill:rgb(0.799561%,1.199341%,1.199341%);fill-opacity:1;" d="M 532.804688 66.773438 L 548.476563 26.957031 C 549.714844 24.394531 550.855469 22.96875 552.664063 22.96875 L 552.664063 21.730469 L 542.203125 21.730469 L 542.203125 22.96875 L 542.871094 22.96875 C 544.203125 22.96875 545.625 24.292969 545.0625 26.007813 L 533.851563 53.945313 L 521.589844 26.007813 C 520.925781 24.292969 522.441406 22.96875 523.582031 22.96875 L 525.101563 22.96875 L 525.101563 21.730469 L 509.714844 21.730469 L 509.714844 22.96875 C 511.515625 22.96875 512.753906 24.292969 513.894531 26.765625 L 531.191406 66.773438 C 531.566406 67.25 532.425781 67.4375 532.804688 66.773438 "/>
<path style=" stroke:none;fill-rule:nonzero;fill:rgb(0.799561%,1.199341%,1.199341%);fill-opacity:1;" d="M 569.574219 44.722656 L 569.574219 61.449219 C 569.574219 62.78125 570.621094 63.734375 571.855469 63.734375 L 583.257813 63.734375 C 589.433594 63.734375 592.285156 60.023438 593.902344 54.898438 L 595.234375 54.898438 L 591.339844 67.054688 L 557.703125 67.054688 L 557.703125 65.820313 L 557.980469 65.820313 C 560.929688 65.820313 562.066406 64.113281 562.066406 61.070313 L 562.066406 27.71875 C 562.066406 24.769531 560.929688 22.964844 557.980469 22.964844 L 557.703125 22.964844 L 557.703125 21.726563 L 590.292969 21.726563 L 591.152344 32.085938 L 590.003906 32.085938 C 589.722656 27.339844 586.96875 24.769531 583.640625 24.769531 L 569.574219 24.769531 L 569.574219 41.304688 L 582.589844 41.304688 C 584.878906 41.304688 585.925781 38.929688 585.925781 37.027344 L 585.925781 36.746094 L 587.25 36.746094 L 587.25 49.28125 L 585.925781 49.28125 L 585.925781 49.007813 C 585.925781 46.90625 584.878906 44.722656 582.589844 44.722656 L 569.574219 44.722656 "/>
<path style=" stroke:none;fill-rule:nonzero;fill:rgb(0.799561%,1.199341%,1.199341%);fill-opacity:1;" d="M 642.367188 51.660156 L 641.035156 51.660156 L 641.035156 67.054688 L 642.367188 67.054688 C 642.933594 65.058594 644.648438 64.109375 646.265625 65.058594 C 651.773438 68.007813 658.613281 68.480469 663.367188 64.773438 C 667.933594 61.445313 669.925781 54.894531 667.074219 49.757813 C 664.40625 44.722656 657.285156 40.832031 651.773438 37.980469 C 645.40625 34.367188 645.21875 28.285156 650.066406 25.152344 C 655.960938 21.730469 664.695313 27.71875 664.695313 36.363281 L 665.835938 36.363281 L 665.835938 21.730469 L 664.695313 21.730469 C 664.316406 23.914063 662.703125 24.105469 660.421875 23.15625 C 654.144531 20.304688 649.019531 20.398438 644.648438 24.394531 C 639.699219 28.953125 638.566406 38.167969 646.644531 43.113281 C 651.496094 46.144531 658.042969 49.566406 660.421875 52.800781 C 662.605469 55.75 662.984375 59.265625 658.804688 62.871094 C 652.726563 68.199219 642.367188 61.734375 642.367188 51.660156 "/>
<path style=" stroke:none;fill-rule:nonzero;fill:rgb(0.799561%,1.199341%,1.199341%);fill-opacity:1;" d="M 448.804688 21.730469 L 437.210938 21.730469 L 437.210938 22.96875 C 439.105469 22.96875 440.347656 23.15625 441.292969 24.292969 C 442.339844 25.4375 443.003906 26.285156 444.328125 27.8125 L 444.328125 62.402344 C 444.328125 64.585938 442.339844 65.722656 440.347656 65.722656 L 439.863281 65.722656 L 439.863281 67.054688 L 452.5 67.054688 L 452.5 65.722656 L 452.21875 65.722656 C 450.128906 65.722656 448.039063 64.585938 448.039063 62.402344 L 448.039063 32.371094 L 477.976563 67.054688 L 478.921875 67.054688 L 478.921875 26.386719 C 478.921875 24.105469 481.019531 22.96875 483.011719 22.96875 L 483.292969 22.96875 L 483.292969 21.730469 L 470.753906 21.730469 L 470.753906 22.96875 L 471.128906 22.96875 C 473.121094 22.96875 475.121094 24.105469 475.121094 26.386719 L 475.121094 52.230469 L 448.804688 21.730469 "/>
<path style=" stroke:none;fill-rule:nonzero;fill:rgb(0.799561%,1.199341%,1.199341%);fill-opacity:1;" d="M 684.652344 61.066406 C 684.652344 64.113281 685.886719 65.820313 688.828125 65.820313 L 689.117188 65.820313 L 689.117188 67.054688 L 672.777344 67.054688 L 672.777344 65.820313 L 673.25 65.820313 C 676.191406 65.820313 677.332031 64.113281 677.332031 61.066406 L 677.332031 27.71875 C 677.332031 24.769531 676.191406 22.960938 673.25 22.960938 L 672.777344 22.960938 L 672.777344 21.730469 L 689.117188 21.730469 L 689.117188 22.960938 L 688.828125 22.960938 C 685.886719 22.960938 684.652344 24.769531 684.652344 27.71875 L 684.652344 61.066406 "/>
<g clip-path="url(#clip1)" clip-rule="nonzero">
<path style=" stroke:none;fill-rule:nonzero;fill:rgb(0.799561%,1.199341%,1.199341%);fill-opacity:1;" d="M 754.3125 47.765625 L 740.429688 26.570313 C 739.007813 23.914063 737.480469 22.960938 735.6875 22.960938 L 735.6875 21.636719 L 751.738281 21.636719 L 751.738281 22.960938 L 750.695313 22.960938 C 749.371094 22.960938 748.132813 24.578125 748.984375 26.292969 L 760.394531 43.679688 L 770.738281 26.003906 C 771.511719 24.769531 770.554688 22.960938 769.316406 22.960938 L 768.179688 22.960938 L 768.179688 21.636719 L 779.304688 21.636719 L 779.304688 22.960938 C 777.304688 22.960938 775.496094 24.296875 774.164063 26.382813 L 761.8125 47.480469 L 761.8125 61.160156 C 761.8125 64.300781 763.042969 65.820313 766.089844 65.820313 L 766.378906 65.820313 L 766.378906 67.054688 L 749.835938 67.054688 L 749.835938 65.820313 L 750.125 65.820313 C 753.160156 65.820313 754.3125 64.113281 754.3125 60.972656 L 754.3125 47.765625 "/>
</g>
<path style=" stroke:none;fill-rule:nonzero;fill:rgb(0.799561%,1.199341%,1.199341%);fill-opacity:1;" d="M 717.152344 61.351563 C 717.152344 64.394531 718.386719 65.820313 721.332031 65.820313 L 721.519531 65.820313 L 721.519531 67.054688 L 705.371094 67.054688 L 705.371094 65.820313 L 705.5625 65.820313 C 708.503906 65.820313 709.933594 64.394531 709.933594 61.351563 L 709.933594 25.148438 L 700.804688 25.148438 C 697.382813 25.148438 695.390625 27.523438 695.109375 32.46875 L 694.058594 32.46875 L 694.445313 22.015625 C 694.445313 21.921875 694.628906 21.726563 694.726563 21.726563 L 732.160156 21.726563 C 732.257813 21.726563 732.449219 21.921875 732.449219 22.015625 L 732.917969 32.46875 L 731.785156 32.46875 C 731.503906 27.523438 729.695313 25.148438 726.175781 25.148438 L 717.152344 25.148438 L 717.152344 61.351563 "/>
<path style=" stroke:none;fill-rule:nonzero;fill:rgb(0.799561%,1.199341%,1.199341%);fill-opacity:1;" d="M 284.839844 145.167969 C 284.839844 148.207031 286.070313 149.820313 288.929688 149.820313 L 289.394531 149.820313 L 289.394531 150.960938 L 273.054688 150.960938 L 273.054688 149.820313 L 273.335938 149.820313 C 276.378906 149.820313 277.515625 148.019531 277.515625 145.0625 L 277.515625 111.8125 C 277.515625 108.773438 276.378906 106.867188 273.335938 106.867188 L 273.054688 106.867188 L 273.054688 105.640625 L 307.734375 105.640625 L 308.492188 116.097656 L 307.453125 116.097656 C 307.167969 111.433594 304.410156 108.773438 301.085938 108.773438 L 284.839844 108.773438 L 284.839844 125.210938 L 298.039063 125.210938 C 300.328125 125.210938 301.277344 123.125 301.277344 120.933594 L 301.277344 120.648438 L 302.515625 120.648438 L 302.515625 133.199219 L 301.277344 133.199219 L 301.277344 132.996094 C 301.277344 130.8125 300.328125 128.636719 298.039063 128.636719 L 284.839844 128.636719 L 284.839844 145.167969 "/>
<path style=" stroke:none;fill-rule:nonzero;fill:rgb(0.799561%,1.199341%,1.199341%);fill-opacity:1;" d="M 450.367188 128.636719 L 450.367188 145.363281 C 450.367188 146.78125 451.507813 147.730469 452.839844 147.730469 L 464.152344 147.730469 C 470.320313 147.730469 473.183594 143.933594 474.796875 138.796875 L 476.027344 138.796875 L 472.320313 150.960938 L 438.589844 150.960938 L 438.589844 149.820313 L 438.871094 149.820313 C 441.90625 149.820313 443.050781 148.019531 443.050781 145.0625 L 443.050781 111.71875 C 443.050781 108.773438 441.90625 106.871094 438.871094 106.871094 L 438.589844 106.871094 L 438.589844 105.636719 L 471.179688 105.636719 L 471.945313 116.085938 L 470.894531 116.085938 C 470.707031 111.238281 467.855469 108.773438 464.433594 108.773438 L 450.367188 108.773438 L 450.367188 125.210938 L 463.574219 125.210938 C 465.671875 125.210938 466.90625 123.117188 466.90625 120.933594 L 466.90625 120.648438 L 468.039063 120.648438 L 468.039063 133.191406 L 466.90625 133.191406 L 466.90625 133.007813 C 466.90625 130.8125 465.671875 128.636719 463.574219 128.636719 L 450.367188 128.636719 "/>
<path style=" stroke:none;fill-rule:nonzero;fill:rgb(0.799561%,1.199341%,1.199341%);fill-opacity:1;" d="M 426.136719 110.003906 C 426.136719 108.011719 424.8125 106.875 423.003906 106.875 L 421.765625 106.875 L 421.765625 105.640625 L 434.113281 105.640625 L 434.113281 106.875 L 432.691406 106.875 C 430.886719 106.875 429.753906 108.011719 429.753906 110.003906 L 429.753906 136.515625 C 429.753906 145.074219 423.195313 151.433594 412.457031 151.433594 C 401.625 151.433594 394.492188 144.785156 394.492188 135.65625 L 394.492188 111.242188 C 394.492188 109.058594 392.789063 106.875 390.5 106.875 L 390.410156 106.875 L 390.410156 105.640625 L 406.277344 105.640625 L 406.277344 106.875 L 405.996094 106.875 C 403.898438 106.875 402.101563 109.058594 402.101563 111.242188 L 402.101563 135.957031 C 402.101563 142.503906 406.179688 148.011719 413.023438 148.011719 C 419.773438 148.011719 426.136719 143.925781 426.136719 136.515625 L 426.136719 110.003906 "/>
<path style=" stroke:none;fill-rule:nonzero;fill:rgb(0.799561%,1.199341%,1.199341%);fill-opacity:1;" d="M 490.277344 128.636719 L 490.277344 145.363281 C 490.277344 146.78125 491.332031 147.730469 492.5625 147.730469 L 503.96875 147.730469 C 510.234375 147.730469 512.988281 143.933594 514.605469 138.796875 L 515.9375 138.796875 L 512.039063 150.960938 L 478.5 150.960938 L 478.5 149.820313 L 478.691406 149.820313 C 481.632813 149.820313 482.871094 148.019531 482.871094 145.0625 L 482.871094 111.71875 C 482.871094 108.773438 481.632813 106.871094 478.691406 106.871094 L 478.5 106.871094 L 478.5 105.636719 L 510.996094 105.636719 L 511.753906 116.085938 L 510.707031 116.085938 C 510.429688 111.238281 507.671875 108.773438 504.347656 108.773438 L 490.277344 108.773438 L 490.277344 125.210938 L 503.292969 125.210938 C 505.582031 125.210938 506.8125 123.117188 506.8125 120.933594 L 506.8125 120.648438 L 507.953125 120.648438 L 507.953125 133.191406 L 506.8125 133.191406 L 506.8125 133.007813 C 506.8125 130.8125 505.582031 128.636719 503.292969 128.636719 L 490.277344 128.636719 "/>
<path style=" stroke:none;fill-rule:nonzero;fill:rgb(0.799561%,1.199341%,1.199341%);fill-opacity:1;" d="M 612.007813 144.878906 C 612.007813 146.308594 613.144531 147.730469 614.382813 147.730469 L 624.929688 147.730469 C 631.109375 147.730469 633.960938 143.835938 635.574219 138.605469 L 636.902344 138.605469 L 633.199219 150.960938 L 600.226563 150.960938 L 600.226563 149.730469 L 600.605469 149.730469 C 603.457031 149.730469 604.6875 147.925781 604.6875 144.878906 L 604.6875 111.808594 C 604.6875 108.773438 603.457031 106.871094 600.605469 106.871094 L 600.226563 106.871094 L 600.226563 105.636719 L 616.566406 105.636719 L 616.566406 106.871094 L 616.289063 106.871094 C 613.144531 106.871094 612.007813 108.773438 612.007813 111.808594 L 612.007813 144.878906 "/>
<path style=" stroke:none;fill-rule:nonzero;fill:rgb(0.799561%,1.199341%,1.199341%);fill-opacity:1;" d="M 567.820313 135.664063 L 566.492188 135.664063 L 566.492188 150.960938 L 567.820313 150.960938 C 568.300781 148.871094 570.003906 148.019531 571.714844 148.96875 C 577.226563 151.820313 584.070313 152.480469 588.917969 148.785156 C 593.472656 145.363281 595.472656 138.894531 592.628906 133.761719 C 589.960938 128.636719 582.644531 124.828125 577.324219 121.886719 C 570.863281 118.277344 570.574219 112.09375 575.613281 109.152344 C 581.316406 105.636719 590.152344 111.527344 590.152344 120.367188 L 591.480469 120.367188 L 591.480469 105.542969 L 590.152344 105.542969 C 589.671875 107.820313 588.160156 108.105469 585.976563 107.15625 C 579.597656 104.117188 574.375 104.398438 570.003906 108.296875 C 565.160156 112.851563 564.117188 122.167969 572.191406 127.117188 C 577.035156 130.144531 583.589844 133.480469 585.976563 136.796875 C 587.96875 139.5625 588.539063 143.167969 584.351563 146.871094 C 578.269531 152.101563 567.820313 145.644531 567.820313 135.664063 "/>
<path style=" stroke:none;fill-rule:nonzero;fill:rgb(0.799561%,1.199341%,1.199341%);fill-opacity:1;" d="M 527.339844 105.636719 L 515.753906 105.636719 L 515.753906 106.871094 C 517.648438 106.871094 518.980469 107.160156 519.738281 108.199219 C 520.878906 109.4375 521.632813 110.195313 522.976563 111.808594 L 522.976563 146.308594 C 522.976563 148.585938 520.878906 149.730469 518.886719 149.730469 L 518.503906 149.730469 L 518.503906 150.960938 L 531.050781 150.960938 L 531.050781 149.730469 L 530.761719 149.730469 C 528.664063 149.730469 526.671875 148.585938 526.671875 146.308594 L 526.671875 116.28125 L 556.515625 150.960938 L 557.464844 150.960938 L 557.464844 110.292969 C 557.464844 108.109375 559.457031 106.871094 561.449219 106.871094 L 561.835938 106.871094 L 561.835938 105.636719 L 549.382813 105.636719 L 549.382813 106.871094 L 549.671875 106.871094 C 551.664063 106.871094 553.851563 108.109375 553.851563 110.292969 L 553.851563 136.234375 L 527.339844 105.636719 "/>
<path style=" stroke:none;fill-rule:nonzero;fill:rgb(0.799561%,1.199341%,1.199341%);fill-opacity:1;" d="M 695.539063 105.636719 L 683.945313 105.636719 L 683.945313 106.871094 C 685.746094 106.871094 687.078125 107.160156 687.835938 108.199219 C 688.976563 109.4375 689.738281 110.195313 691.066406 111.808594 L 691.066406 146.308594 C 691.066406 148.585938 688.976563 149.730469 686.984375 149.730469 L 686.695313 149.730469 L 686.695313 150.960938 L 699.144531 150.960938 L 699.144531 149.730469 L 698.953125 149.730469 C 696.769531 149.730469 694.777344 148.585938 694.777344 146.308594 L 694.777344 116.28125 L 724.605469 150.960938 L 725.566406 150.960938 L 725.566406 110.292969 C 725.566406 108.109375 727.5625 106.871094 729.554688 106.871094 L 730.027344 106.871094 L 730.027344 105.636719 L 717.769531 105.636719 L 717.769531 106.871094 C 719.761719 106.871094 721.953125 108.109375 721.953125 110.292969 L 721.953125 136.234375 L 695.539063 105.636719 "/>
<path style=" stroke:none;fill-rule:evenodd;fill:rgb(0.799561%,1.199341%,1.199341%);fill-opacity:1;" d="M 677.933594 145.664063 C 678.976563 148.132813 680.300781 149.5625 682.109375 149.5625 L 682.589844 149.5625 L 682.589844 150.792969 L 666.8125 150.792969 L 666.8125 149.5625 L 668.042969 149.5625 C 669.472656 149.5625 670.902344 148.132813 670.234375 146.417969 L 665.863281 136.351563 L 649.804688 136.351563 L 645.523438 146.417969 C 644.863281 148.132813 646.472656 149.5625 648.085938 149.5625 L 648.664063 149.5625 L 648.664063 150.792969 L 636.597656 150.792969 L 636.597656 149.5625 L 637.449219 149.5625 C 639.25 149.5625 640.871094 148.132813 642.101563 145.472656 L 658.828125 104.992188 C 659.835938 103.859375 660.375 105.148438 660.375 105.148438 Z M 651.042969 133.027344 L 664.347656 133.027344 L 657.71875 117.6875 Z M 651.042969 133.027344 "/>
<g clip-path="url(#clip2)" clip-rule="nonzero">
<path style=" stroke:none;fill-rule:evenodd;fill:rgb(0.799561%,1.199341%,1.199341%);fill-opacity:1;" d="M 779.273438 128.347656 C 779.273438 141.082031 769.109375 151.058594 755.894531 151.058594 L 734.902344 151.058594 L 734.902344 149.820313 L 735.28125 149.820313 C 738.222656 149.820313 739.371094 148.011719 739.371094 144.976563 L 739.371094 111.910156 C 739.371094 108.867188 738.222656 106.964844 735.28125 106.964844 L 734.902344 106.964844 L 734.902344 105.726563 L 752.117188 105.726563 C 781.101563 104.824219 779.273438 128.347656 779.273438 128.347656 M 747.628906 108.960938 L 747.628906 147.546875 C 749.4375 148.011719 750.394531 148.117188 752.097656 148.117188 C 765.777344 148.117188 772.339844 140.035156 772.339844 128.25 C 772.429688 127.753906 773.148438 107.675781 751.976563 108.199219 C 751.976563 108.199219 749.265625 107.800781 747.628906 108.960938 "/>
</g>
<path style=" stroke:none;fill-rule:evenodd;fill:rgb(0.799561%,1.199341%,1.199341%);fill-opacity:1;" d="M 241.410156 92.367188 C 258.0625 92.597656 268.585938 105.378906 268.585938 121.539063 C 268.585938 137.511719 257.941406 150.613281 241.410156 150.613281 C 224.875 150.613281 214.230469 137.511719 214.230469 121.539063 C 215.660156 91.0625 241.410156 92.367188 241.410156 92.367188 M 224.402344 121.539063 C 224.445313 136.789063 231.460938 147.359375 241.410156 147.191406 C 250.722656 147.191406 258.417969 137.835938 258.417969 121.109375 C 258.0625 99.140625 246.78125 96.164063 241.410156 95.875 C 228.839844 96.519531 224.359375 109.121094 224.402344 121.539063 "/>
<path style=" stroke:none;fill-rule:evenodd;fill:rgb(0.799561%,1.199341%,1.199341%);fill-opacity:1;" d="M 359.476563 93.304688 C 359.476563 93.304688 386.535156 93.355469 386.988281 122.886719 C 386.988281 136 380.046875 146.621094 368.648438 150.324219 C 371.121094 155.933594 377.863281 162.292969 387.179688 162.863281 L 387.179688 164.382813 C 374.253906 164.382813 362.855469 160.207031 354.203125 151.273438 C 340.714844 148.710938 332.34375 136.730469 332.34375 122.480469 C 332.34375 106.398438 342.890625 93.425781 359.476563 93.304688 M 359.476563 96.820313 C 359.476563 96.820313 342.921875 96.039063 342.707031 122.480469 C 342.707031 139.292969 350.21875 148.132813 359.714844 148.132813 C 368.929688 148.132813 376.632813 139.292969 376.632813 122.480469 C 376.632813 105.664063 368.691406 96.820313 359.476563 96.820313 "/>
<path style=" stroke:none;fill-rule:evenodd;fill:rgb(69.799805%,57.598877%,27.099609%);fill-opacity:1;" d="M 23.140625 170.449219 L 23.140625 170.703125 L 24.777344 171.835938 L 24.777344 170.449219 L 26.378906 170.449219 L 26.378906 173.140625 L 32.96875 177.585938 L 32.96875 175.859375 L 27.941406 172.503906 L 27.941406 170.449219 L 29.875 170.449219 L 32.570313 172.207031 L 32.570313 170.59375 L 32.355469 170.449219 L 34.792969 170.449219 L 34.792969 178.644531 L 36.460938 179.703125 L 36.460938 171.339844 L 40.679688 182.222656 L 42.402344 183.230469 L 42.402344 171.789063 L 40.902344 170.933594 L 40.902344 179.28125 L 37.421875 170.449219 L 43.859375 170.449219 C 56.710938 177.308594 70.125 182.359375 81.480469 184.753906 L 65.050781 194.820313 C 48.703125 189.390625 32.851563 180.199219 20.117188 170.449219 Z M 151.054688 170.449219 L 149.046875 171.605469 L 149.046875 182.886719 L 153.59375 180.257813 C 156.214844 178.871094 157.269531 176.84375 157.269531 175.019531 C 157.269531 173.523438 156.578125 172.84375 155.378906 173.222656 C 156.164063 172.347656 156.644531 171.390625 156.765625 170.441406 L 158.214844 170.449219 C 158.089844 171.375 158.097656 172.289063 158.253906 173.109375 C 158.726563 175.820313 160.691406 176.578125 163.238281 174.089844 C 164.328125 173.035156 165.171875 171.769531 165.734375 170.464844 L 167.785156 170.449219 L 167.785156 170.738281 L 168.15625 170.449219 L 171.238281 170.449219 C 158.519531 180.199219 142.667969 189.390625 126.273438 194.820313 L 109.839844 184.753906 C 121.191406 182.359375 134.609375 177.308594 147.46875 170.457031 Z M 154.859375 170.449219 C 155.007813 170.636719 155.082031 170.917969 155.082031 171.339844 C 155.082031 172.316406 154.429688 173.257813 153.625 173.746094 L 150.792969 175.332031 L 150.792969 172.242188 L 153.625 170.59375 C 153.71875 170.53125 153.800781 170.496094 153.875 170.457031 Z M 164.550781 170.449219 C 164.222656 171.273438 163.726563 172.082031 163.015625 172.769531 C 161.128906 174.539063 160.039063 173.480469 159.75 171.605469 C 159.675781 171.242188 159.636719 170.859375 159.625 170.449219 Z M 137.652344 188.648438 L 139.652344 187.71875 L 140.527344 184.285156 L 144.675781 182.371094 L 145.910156 184.785156 L 147.769531 183.910156 L 143.113281 174.648438 L 141.214844 175.515625 Z M 128.769531 192.070313 L 136.445313 188.945313 L 136.445313 187.222656 L 130.695313 189.554688 L 130.695313 180 L 128.769531 180.792969 Z M 150.792969 176.761719 L 153.847656 175.019531 C 154.867188 174.429688 155.519531 174.695313 155.519531 175.820313 C 155.519531 176.917969 154.867188 177.925781 153.847656 178.488281 L 150.792969 180.257813 Z M 142.417969 176.945313 L 144.089844 181.089844 L 140.925781 182.519531 Z M 56.082031 189.785156 L 58.117188 190.578125 L 59.179688 187.789063 L 63.253906 189.441406 L 64.273438 192.789063 L 66.273438 193.628906 L 62.15625 180.679688 L 60.304688 179.957031 Z M 44.140625 174.429688 L 47.050781 175.894531 L 47.050781 185.339844 L 48.941406 186.429688 L 48.941406 176.984375 L 51.96875 178.457031 L 51.96875 176.726563 L 44.140625 172.769531 Z M 53.535156 188.546875 L 55.421875 189.40625 L 55.421875 178.339844 L 53.535156 177.433594 Z M 61.207031 182.371094 L 62.742188 187.71875 L 59.644531 186.429688 Z M 84.476563 215.605469 L 86.578125 215.71875 L 87.675781 212.785156 L 92.261719 213.117188 L 93.421875 216.242188 L 95.539063 216.398438 L 91.058594 204.578125 L 88.949219 204.429688 Z M 106.601563 207.851563 C 106.3125 205.363281 104.199219 204.089844 101.652344 204.199219 C 98.195313 204.429688 96.191406 207.242188 96.191406 210.597656 C 96.269531 213.835938 98.378906 216.472656 101.839844 216.242188 C 104.632813 216.085938 106.570313 214.097656 106.675781 211.316406 L 104.710938 211.46875 C 104.5625 213.082031 103.578125 214.515625 101.757813 214.628906 C 99.289063 214.785156 98.230469 212.636719 98.230469 210.445313 C 98.195313 208.222656 99.179688 206 101.652344 205.851563 C 103.355469 205.746094 104.199219 206.6875 104.5625 207.964844 Z M 66.109375 197.453125 C 76.058594 200.621094 86.304688 202.429688 95.660156 202.429688 C 105.066406 202.429688 115.269531 200.621094 125.214844 197.453125 L 125.214844 212.5625 C 117.3125 216.183594 106.964844 218.589844 95.660156 218.589844 C 84.40625 218.589844 74.050781 216.183594 66.109375 212.5625 Z M 90 206.339844 L 91.757813 211.316406 L 88.179688 211.082031 Z M 90 206.339844 "/>
<path style=" stroke:none;fill-rule:evenodd;fill:rgb(69.799805%,57.598877%,27.099609%);fill-opacity:1;" d="M 20.117188 170.449219 C 13.40625 165.324219 7.554688 160.035156 2.957031 155.0625 L 2.957031 137.25 C 12.007813 150.074219 27.46875 161.730469 43.859375 170.457031 L 37.414063 170.449219 L 36.644531 168.480469 L 34.785156 167.390625 L 34.785156 170.449219 L 32.363281 170.449219 L 27.949219 167.578125 L 27.949219 164.605469 L 32.890625 167.917969 L 32.890625 166.175781 L 26.378906 161.933594 L 26.378906 170.449219 L 24.777344 170.449219 L 24.777344 160.769531 L 23.132813 159.636719 L 23.132813 170.449219 Z M 27.949219 170.449219 L 27.949219 169.191406 L 29.875 170.449219 Z M 147.46875 170.449219 C 163.859375 161.730469 179.3125 150.074219 188.363281 137.25 L 188.363281 155.0625 C 183.777344 160.035156 177.941406 165.324219 171.238281 170.449219 L 168.15625 170.449219 L 169.394531 169.492188 L 169.394531 165.015625 L 171.757813 163.132813 C 173.210938 162.042969 173.542969 162.605469 173.542969 164.636719 C 173.542969 165.125 173.542969 165.777344 173.792969 166.066406 L 175.507813 164.753906 C 175.179688 164.5625 175.03125 163.507813 175.03125 162.226563 C 175.03125 160.503906 174.230469 160.6875 173.691406 161.035156 C 173.980469 160.648438 175.179688 159.101563 175.179688 157.070313 C 175.179688 155.191406 174.15625 154.933594 172.15625 156.472656 L 167.785156 159.9375 L 167.785156 170.449219 L 165.742188 170.449219 C 166.511719 168.679688 166.78125 166.796875 166.480469 165.28125 C 165.972656 162.53125 164 161.746094 161.386719 164.183594 C 159.578125 165.925781 158.527344 168.257813 158.222656 170.429688 L 156.765625 170.449219 C 156.785156 170.292969 156.792969 170.140625 156.792969 169.984375 C 156.792969 168.101563 155.636719 167.882813 153.851563 168.855469 L 151.0625 170.449219 Z M 153.875 170.449219 C 154.320313 170.25 154.660156 170.234375 154.867188 170.464844 Z M 159.625 170.449219 C 159.617188 168.851563 160.203125 166.992188 161.710938 165.585938 C 163.488281 163.8125 164.585938 164.871094 164.949219 166.671875 C 165.15625 167.746094 165.0625 169.132813 164.558594 170.441406 Z M 176.742188 163.507813 L 182.570313 158.160156 L 182.570313 156.472656 L 178.164063 160.539063 L 178.164063 157.375 L 182.171875 153.726563 L 182.171875 152.175781 L 178.164063 155.835938 L 178.164063 153.015625 L 182.453125 148.984375 L 182.453125 147.359375 L 176.742188 152.589844 Z M 169.394531 160.503906 L 171.972656 158.503906 C 172.816406 157.863281 173.542969 157.484375 173.542969 158.917969 C 173.542969 160.042969 173 161.066406 172.007813 161.933594 L 169.394531 163.894531 Z M 7.007813 153.835938 C 7.042969 156.621094 8.464844 158.917969 10.214844 160.160156 C 11.710938 161.214844 13.199219 161.289063 13.199219 158.769531 C 13.199219 157.597656 12.6875 155.945313 11.710938 154.855469 C 11.3125 154.359375 9.636719 152.5625 9.527344 152.367188 C 9.015625 151.769531 8.644531 151.058594 8.644531 150.257813 C 8.644531 149.167969 9.378906 149.390625 10.039063 149.777344 C 10.949219 150.449219 11.5625 151.464844 11.636719 153.015625 L 12.949219 153.917969 C 12.949219 151.582031 11.636719 149.390625 10.039063 148.226563 C 8.644531 147.242188 7.304688 147.359375 7.304688 149.546875 C 7.304688 150.753906 7.710938 152.21875 8.984375 153.613281 L 11.238281 156.167969 C 11.5625 156.582031 11.859375 157.148438 11.859375 158.019531 C 11.859375 158.917969 11.378906 159.441406 10.257813 158.546875 C 9.191406 157.828125 8.320313 156.546875 8.320313 154.785156 Z M 21.46875 161.324219 C 21.28125 158.84375 19.898438 156.472656 18.042969 155.304688 C 15.605469 153.761719 14.183594 155.53125 14.183594 158.730469 C 14.183594 161.96875 15.605469 165.585938 18.042969 167.125 C 20.007813 168.367188 21.394531 167.390625 21.46875 164.753906 L 20.082031 163.851563 C 20.007813 165.429688 19.28125 166.332031 18.042969 165.464844 C 16.332031 164.378906 15.5625 161.777344 15.5625 159.636719 C 15.5625 157.484375 16.332031 155.796875 18.042969 156.933594 C 19.207031 157.671875 19.792969 158.996094 20.042969 160.457031 L 21.46875 161.324219 "/>
<path style="fill:none;stroke-width:0.5;stroke-linecap:butt;stroke-linejoin:miter;stroke:rgb(69.799805%,57.598877%,27.099609%);stroke-opacity:1;stroke-miterlimit:3.864;" d="M 1490.46875 397.554688 L 1535.9375 423.84375 C 1562.148438 437.828125 1572.695313 458.21875 1572.695313 476.226563 C 1572.695313 491.304688 1565.78125 498.0625 1553.789063 494.273438 C 1562.890625 504.429688 1567.929688 515.679688 1567.929688 526.65625 C 1567.929688 545.484375 1556.367188 547.671875 1538.476563 537.945313 L 1490.46875 510.523438 Z M 1376.523438 340.015625 L 1396.523438 349.390625 L 1405.273438 383.648438 L 1446.757813 402.789063 L 1459.101563 378.726563 L 1477.695313 387.398438 L 1431.132813 480.015625 L 1412.148438 471.265625 Z M 1613.867188 584.585938 C 1588.007813 559.859375 1577.421875 522.515625 1582.539063 495.40625 C 1587.1875 468.296875 1606.992188 460.796875 1632.382813 485.601563 C 1658.242188 510.523438 1669.921875 547.398438 1664.804688 573.6875 C 1659.648438 601.1875 1640 609.117188 1613.867188 584.585938 Z M 1677.851563 519.117188 L 1693.867188 531.578125 L 1693.867188 576.34375 L 1717.578125 595.09375 C 1732.109375 606.070313 1735.351563 600.445313 1735.351563 580.054688 C 1735.351563 575.25 1735.351563 568.882813 1737.929688 565.796875 L 1755.117188 578.960938 C 1751.796875 580.875 1750.3125 591.421875 1750.3125 604.15625 C 1750.3125 621.460938 1742.382813 619.703125 1736.914063 616.304688 C 1739.804688 620.015625 1751.796875 635.40625 1751.796875 655.796875 C 1751.796875 674.585938 1741.5625 677.164063 1721.5625 661.773438 L 1677.851563 627.164063 Z M 1287.695313 305.679688 L 1364.53125 336.96875 L 1364.53125 354.234375 L 1306.953125 330.953125 L 1306.953125 426.5 L 1287.695313 418.6875 Z M 1767.5 591.421875 L 1825.703125 644.898438 L 1825.703125 661.773438 L 1781.640625 621.109375 L 1781.640625 652.75 L 1821.71875 689.3125 L 1821.71875 704.742188 L 1781.640625 668.21875 L 1781.640625 696.421875 L 1824.53125 736.734375 L 1824.53125 752.90625 L 1767.5 700.523438 Z M 1883.632813 675.757813 C 1750.664063 531.851563 1513.046875 361.1875 1262.734375 278.375 L 1098.398438 378.882813 C 1356.757813 433.453125 1722.226563 625.328125 1883.632813 854.078125 Z M 1507.851563 504.078125 L 1536.328125 520.640625 C 1545.429688 525.914063 1550.898438 524.429688 1550.898438 513.023438 C 1550.898438 503.257813 1544.296875 493.921875 1536.328125 489.039063 L 1507.851563 473.179688 Z M 1507.851563 458.960938 L 1538.476563 476.226563 C 1548.671875 482.203125 1555.195313 479.625 1555.195313 468.296875 C 1555.195313 457.398438 1548.671875 447.242188 1538.476563 441.617188 L 1507.851563 423.84375 Z M 1424.21875 457.046875 L 1440.898438 415.601563 L 1409.257813 401.304688 Z M 1617.109375 570.71875 C 1635 588.414063 1645.859375 577.828125 1649.492188 559.859375 C 1652.734375 542.085938 1648.4375 516.5 1630.234375 498.804688 C 1611.289063 481.1875 1600.390625 491.617188 1597.5 510.523438 C 1593.867188 528.140625 1598.164063 553.023438 1617.109375 570.71875 Z M 1693.867188 621.460938 L 1719.726563 641.460938 C 1728.164063 647.867188 1735.351563 651.539063 1735.351563 637.320313 C 1735.351563 626.070313 1730 615.835938 1720.078125 607.242188 L 1693.867188 587.710938 Z M 560.820313 328.726563 L 581.171875 320.796875 L 591.796875 348.609375 L 632.460938 332.125 L 642.734375 298.609375 L 662.734375 290.289063 L 621.5625 419.78125 L 603.046875 426.929688 Z M 70.078125 688.140625 C 70.507813 660.289063 84.648438 637.320313 102.226563 624.898438 C 117.03125 614.351563 131.992188 613.609375 131.992188 638.804688 C 131.992188 650.523438 126.875 667.125 117.03125 677.984375 C 113.125 682.828125 96.367188 700.875 95.195313 702.828125 C 90.15625 708.882813 86.523438 715.992188 86.523438 723.84375 C 86.523438 734.820313 93.789063 732.515625 100.390625 728.804688 C 109.492188 722.007813 115.625 711.851563 116.367188 696.421875 L 129.492188 687.398438 C 129.492188 710.679688 116.367188 732.515625 100.390625 744.234375 C 86.523438 754 73.046875 752.90625 73.046875 730.953125 C 73.046875 719.039063 77.109375 704.3125 89.765625 690.367188 L 112.382813 664.742188 C 115.625 660.5625 118.59375 654.976563 118.59375 646.34375 C 118.59375 637.320313 113.789063 632.007813 102.539063 641.03125 C 91.914063 648.296875 83.242188 661.03125 83.242188 678.726563 Z M 214.609375 613.179688 C 212.8125 638.0625 198.984375 661.773438 180.351563 673.453125 C 156.054688 688.882813 141.835938 671.1875 141.835938 639.234375 C 141.835938 606.8125 156.054688 570.71875 180.351563 555.25 C 200.15625 542.828125 213.945313 552.59375 214.609375 578.960938 L 200.820313 587.984375 C 200.15625 572.164063 192.8125 563.101563 180.351563 571.851563 C 163.320313 582.710938 155.625 608.726563 155.625 630.210938 C 155.625 651.539063 163.320313 668.570313 180.351563 657.320313 C 192.070313 649.78125 197.929688 636.578125 200.429688 621.851563 Z M 231.328125 519.546875 L 247.773438 508.21875 L 247.773438 618.882813 L 231.328125 630.210938 Z M 263.789063 495.015625 L 329.6875 450.640625 L 329.6875 467.984375 L 279.492188 501.460938 L 279.492188 534.507813 L 325.625 504.429688 L 325.625 520.640625 L 279.492188 550.640625 L 279.492188 580.523438 L 328.90625 547.398438 L 328.90625 564.664063 L 263.789063 607.242188 Z M 347.851563 440.132813 L 364.6875 429.625 L 364.6875 513.023438 L 406.796875 404.273438 L 423.945313 394.15625 L 423.945313 508.609375 L 409.023438 517.242188 L 409.023438 433.648438 L 366.445313 541.695313 L 347.851563 552.59375 Z M 441.40625 482.203125 L 470.507813 467.554688 L 470.507813 373.023438 L 489.492188 362.164063 L 489.492188 456.65625 L 519.6875 441.929688 L 519.6875 459.234375 L 441.40625 498.804688 Z M 535.351563 341.1875 L 554.296875 332.4375 L 554.296875 443.101563 L 535.351563 452.164063 Z M 29.570313 763.257813 L 29.570313 854.078125 C 191.015625 625.328125 556.445313 433.453125 814.882813 378.882813 L 650.507813 278.375 C 400.898438 361.1875 162.96875 531.851563 29.570313 675.757813 Z M 612.148438 402.789063 L 627.421875 349.390625 L 596.445313 362.164063 Z M 844.765625 70.523438 L 865.78125 69.3125 L 876.757813 98.648438 L 922.617188 95.25 L 934.21875 64 L 955.390625 62.59375 L 910.585938 180.71875 L 889.492188 182.28125 Z M 1066.054688 147.984375 C 1063.125 172.867188 1041.992188 185.601563 1016.523438 184.507813 C 981.953125 182.28125 961.914063 154 961.914063 120.5625 C 962.695313 88.140625 983.789063 61.8125 1018.28125 64 C 1046.367188 65.523438 1065.625 85.484375 1066.757813 113.414063 L 1047.109375 111.929688 C 1045.625 95.679688 1035.78125 81.382813 1017.578125 80.289063 C 992.8125 78.804688 982.304688 100.210938 982.304688 122.046875 C 981.953125 144.195313 991.796875 166.421875 1016.523438 167.984375 C 1033.632813 169.117188 1041.992188 159.703125 1045.625 146.851563 Z M 661.054688 251.929688 C 760.585938 220.289063 862.96875 202.203125 956.601563 202.203125 C 1050.664063 202.203125 1152.695313 220.289063 1252.148438 251.929688 L 1252.148438 100.835938 C 1173.046875 64.742188 1069.648438 40.601563 956.601563 40.601563 C 844.023438 40.601563 740.507813 64.742188 661.054688 100.835938 Z M 900 163.101563 L 917.578125 113.414063 L 881.875 115.601563 Z M 900 163.101563 " transform="matrix(0.1,0,0,-0.1,0,222.65)"/>
<path style=" stroke:none;fill-rule:nonzero;fill:rgb(9.799194%,27.799988%,53.29895%);fill-opacity:1;" d="M 168.402344 154.050781 L 168.402344 138.753906 L 153.710938 160.871094 C 152.46875 162.753906 151.660156 164.304688 151.144531 165.925781 C 157.195313 162.414063 162.988281 158.464844 168.402344 154.050781 "/>
<path style="fill:none;stroke-width:1.17;stroke-linecap:butt;stroke-linejoin:miter;stroke:rgb(9.799194%,27.799988%,53.29895%);stroke-opacity:1;stroke-miterlimit:3.864;" d="M 1684.023438 685.992188 L 1684.023438 838.960938 L 1537.109375 617.789063 C 1524.6875 598.960938 1516.601563 583.453125 1511.445313 567.242188 C 1571.953125 602.359375 1629.882813 641.851563 1684.023438 685.992188 Z M 1684.023438 685.992188 " transform="matrix(0.1,0,0,-0.1,0,222.65)"/>
<path style=" stroke:none;fill-rule:nonzero;fill:rgb(9.799194%,27.799988%,53.29895%);fill-opacity:1;" d="M 108.265625 199.378906 C 113.667969 198.589844 117.199219 197.53125 123.179688 195.644531 L 108.265625 186.414063 L 108.265625 199.378906 "/>
<path style="fill:none;stroke-width:1.17;stroke-linecap:butt;stroke-linejoin:miter;stroke:rgb(9.799194%,27.799988%,53.29895%);stroke-opacity:1;stroke-miterlimit:3.864;" d="M 1082.65625 232.710938 C 1136.679688 240.601563 1171.992188 251.1875 1231.796875 270.054688 L 1082.65625 362.359375 Z M 1082.65625 232.710938 " transform="matrix(0.1,0,0,-0.1,0,222.65)"/>
<path style=" stroke:none;fill-rule:nonzero;fill:rgb(9.799194%,27.799988%,53.29895%);fill-opacity:1;" d="M 83.125 186.414063 L 68.1875 195.644531 C 74.164063 197.523438 77.695313 198.585938 83.125 199.378906 L 83.125 186.414063 "/>
<path style="fill:none;stroke-width:1.17;stroke-linecap:butt;stroke-linejoin:miter;stroke:rgb(9.799194%,27.799988%,53.29895%);stroke-opacity:1;stroke-miterlimit:3.864;" d="M 831.25 362.359375 L 681.875 270.054688 C 741.640625 251.265625 776.953125 240.640625 831.25 232.710938 Z M 831.25 362.359375 " transform="matrix(0.1,0,0,-0.1,0,222.65)"/>
<path style=" stroke:none;fill-rule:nonzero;fill:rgb(9.799194%,27.799988%,53.29895%);fill-opacity:1;" d="M 168.429688 175.265625 L 166.144531 176.886719 C 161.1875 180.324219 155.898438 183.628906 150.402344 186.636719 L 150.402344 192.902344 C 150.402344 192.902344 160.34375 186.53125 164.90625 183.332031 C 167.628906 181.367188 168.253906 179.597656 168.402344 176.886719 L 168.429688 175.265625 "/>
<path style="fill:none;stroke-width:1.17;stroke-linecap:butt;stroke-linejoin:miter;stroke:rgb(9.799194%,27.799988%,53.29895%);stroke-opacity:1;stroke-miterlimit:3.864;" d="M 1684.296875 473.84375 L 1661.445313 457.632813 C 1611.875 423.257813 1558.984375 390.210938 1504.023438 360.132813 L 1504.023438 297.476563 C 1504.023438 297.476563 1603.4375 361.1875 1649.0625 393.179688 C 1676.289063 412.828125 1682.539063 430.523438 1684.023438 457.632813 Z M 1684.296875 473.84375 " transform="matrix(0.1,0,0,-0.1,0,222.65)"/>
<path style=" stroke:none;fill-rule:nonzero;fill:rgb(9.799194%,27.799988%,53.29895%);fill-opacity:1;" d="M 20.835938 152.292969 L 20.851563 135.480469 L 4.925781 135.511719 C 9.613281 141.695313 14.976563 147.273438 20.835938 152.292969 "/>
<path style="fill:none;stroke-width:1.17;stroke-linecap:butt;stroke-linejoin:miter;stroke:rgb(9.799194%,27.799988%,53.29895%);stroke-opacity:1;stroke-miterlimit:3.864;" d="M 208.359375 703.570313 L 208.515625 871.695313 L 49.257813 871.382813 C 96.132813 809.546875 149.765625 753.765625 208.359375 703.570313 Z M 208.359375 703.570313 " transform="matrix(0.1,0,0,-0.1,0,222.65)"/>
<path style=" stroke:none;fill-rule:nonzero;fill:rgb(9.799194%,27.799988%,53.29895%);fill-opacity:1;" d="M 40.222656 165.9375 C 39.710938 164.316406 38.910156 162.761719 37.683594 160.871094 L 22.957031 138.753906 L 22.957031 154.058594 C 28.378906 158.472656 34.171875 162.429688 40.222656 165.9375 "/>
<path style="fill:none;stroke-width:1.17;stroke-linecap:butt;stroke-linejoin:miter;stroke:rgb(9.799194%,27.799988%,53.29895%);stroke-opacity:1;stroke-miterlimit:3.864;" d="M 402.226563 567.125 C 397.109375 583.335938 389.101563 598.882813 376.835938 617.789063 L 229.570313 838.960938 L 229.570313 685.914063 C 283.789063 641.773438 341.71875 602.203125 402.226563 567.125 Z M 402.226563 567.125 " transform="matrix(0.1,0,0,-0.1,0,222.65)"/>
<path style=" stroke:none;fill-rule:nonzero;fill:rgb(9.799194%,27.799988%,53.29895%);fill-opacity:1;" d="M 22.925781 175.242188 L 22.992188 176.886719 C 23.074219 179.597656 23.734375 181.359375 26.460938 183.324219 C 30.976563 186.53125 40.964844 192.894531 40.964844 192.894531 L 40.964844 186.621094 C 35.480469 183.613281 30.199219 180.308594 25.253906 176.886719 L 22.925781 175.242188 "/>
<path style="fill:none;stroke-width:1.17;stroke-linecap:butt;stroke-linejoin:miter;stroke:rgb(9.799194%,27.799988%,53.29895%);stroke-opacity:1;stroke-miterlimit:3.864;" d="M 229.257813 474.078125 L 229.921875 457.632813 C 230.742188 430.523438 237.34375 412.90625 264.609375 393.257813 C 309.765625 361.1875 409.648438 297.554688 409.648438 297.554688 L 409.648438 360.289063 C 354.804688 390.367188 301.992188 423.414063 252.539063 457.632813 Z M 229.257813 474.078125 " transform="matrix(0.1,0,0,-0.1,0,222.65)"/>
<path style=" stroke:none;fill-rule:nonzero;fill:rgb(9.799194%,27.799988%,53.29895%);fill-opacity:1;" d="M 170.476563 135.480469 L 170.476563 152.316406 C 176.351563 147.292969 181.734375 141.703125 186.4375 135.511719 L 170.476563 135.480469 "/>
<path style="fill:none;stroke-width:1.17;stroke-linecap:butt;stroke-linejoin:miter;stroke:rgb(9.799194%,27.799988%,53.29895%);stroke-opacity:1;stroke-miterlimit:3.864;" d="M 1704.765625 871.695313 L 1704.765625 703.335938 C 1763.515625 753.570313 1817.34375 809.46875 1864.375 871.382813 Z M 1704.765625 871.695313 " transform="matrix(0.1,0,0,-0.1,0,222.65)"/>
<path style=" stroke:none;fill-rule:nonzero;fill:rgb(9.799194%,27.799988%,53.29895%);fill-opacity:1;" d="M 112.253906 59.324219 C 114.125 43.910156 119.949219 33.773438 132.140625 26.507813 L 59.222656 26.507813 C 71.363281 33.769531 77.195313 43.886719 79.386719 59.261719 C 81.71875 58.832031 84.363281 58.199219 87.570313 58.199219 C 91.578125 58.199219 94.386719 59.554688 95.660156 62.074219 C 96.644531 59.554688 99.742188 58.199219 103.785156 58.199219 C 107.132813 58.199219 109.84375 58.890625 112.253906 59.324219 "/>
<path style="fill:none;stroke-width:0.79;stroke-linecap:butt;stroke-linejoin:miter;stroke:rgb(9.799194%,27.799988%,53.29895%);stroke-opacity:1;stroke-miterlimit:3.864;" d="M 1122.539063 1633.257813 C 1141.25 1787.398438 1199.492188 1888.765625 1321.40625 1961.421875 L 592.226563 1961.421875 C 713.632813 1888.804688 771.953125 1787.632813 793.867188 1633.882813 C 817.1875 1638.179688 843.632813 1644.507813 875.703125 1644.507813 C 915.78125 1644.507813 943.867188 1630.953125 956.601563 1605.757813 C 966.445313 1630.953125 997.421875 1644.507813 1037.851563 1644.507813 C 1071.328125 1644.507813 1098.4375 1637.59375 1122.539063 1633.257813 Z M 1122.539063 1633.257813 " transform="matrix(0.1,0,0,-0.1,0,222.65)"/>
<path style=" stroke:none;fill-rule:nonzero;fill:rgb(9.799194%,27.799988%,53.29895%);fill-opacity:1;" d="M 122.179688 96.632813 C 132.917969 99.714844 140.535156 105.699219 146.3125 115.996094 L 146.3125 40.605469 C 140.1875 51.539063 131.992188 57.496094 120.488281 60.363281 L 122.40625 61.660156 L 122.40625 67.890625 L 132.066406 67.882813 C 134.578125 67.882813 136.214844 68.375 136.214844 70.484375 C 136.214844 72.972656 134.941406 73.761719 132.617188 73.761719 L 122.40625 73.761719 L 122.40625 83.855469 L 132.066406 83.855469 C 134.578125 83.855469 136.214844 84.3125 136.214844 86.457031 C 136.214844 88.910156 134.941406 89.695313 132.617188 89.695313 L 122.40625 89.695313 L 122.40625 96.632813 L 122.179688 96.632813 "/>
<path style="fill:none;stroke-width:0.79;stroke-linecap:butt;stroke-linejoin:miter;stroke:rgb(9.799194%,27.799988%,53.29895%);stroke-opacity:1;stroke-miterlimit:3.864;" d="M 1221.796875 1260.171875 C 1329.179688 1229.351563 1405.351563 1169.507813 1463.125 1066.539063 L 1463.125 1820.445313 C 1401.875 1711.109375 1319.921875 1651.539063 1204.882813 1622.867188 L 1224.0625 1609.898438 L 1224.0625 1547.59375 L 1320.664063 1547.671875 C 1345.78125 1547.671875 1362.148438 1542.75 1362.148438 1521.65625 C 1362.148438 1496.773438 1349.414063 1488.882813 1326.171875 1488.882813 L 1224.0625 1488.882813 L 1224.0625 1387.945313 L 1320.664063 1387.945313 C 1345.78125 1387.945313 1362.148438 1383.375 1362.148438 1361.929688 C 1362.148438 1337.398438 1349.414063 1329.546875 1326.171875 1329.546875 L 1224.0625 1329.546875 L 1224.0625 1260.171875 Z M 1221.796875 1260.171875 " transform="matrix(0.1,0,0,-0.1,0,222.65)"/>
<path style=" stroke:none;fill-rule:nonzero;fill:rgb(9.799194%,27.799988%,53.29895%);fill-opacity:1;" d="M 80.976563 96.632813 L 79.570313 96.804688 C 77.535156 112.992188 71.726563 123.636719 59.222656 131.140625 L 132.140625 131.140625 C 119.609375 123.644531 113.800781 113.007813 112.074219 96.835938 L 110.425781 96.632813 L 103.636719 96.632813 C 100.253906 96.632813 100.652344 98.332031 95.660156 98.332031 C 90.667969 98.332031 91.109375 96.632813 87.785156 96.632813 L 80.976563 96.632813 "/>
<path style="fill:none;stroke-width:0.79;stroke-linecap:butt;stroke-linejoin:miter;stroke:rgb(9.799194%,27.799988%,53.29895%);stroke-opacity:1;stroke-miterlimit:3.864;" d="M 809.765625 1260.171875 L 795.703125 1258.453125 C 775.351563 1096.578125 717.265625 990.132813 592.226563 915.09375 L 1321.40625 915.09375 C 1196.09375 990.054688 1138.007813 1096.421875 1120.742188 1258.140625 L 1104.257813 1260.171875 L 1036.367188 1260.171875 C 1002.539063 1260.171875 1006.523438 1243.179688 956.601563 1243.179688 C 906.679688 1243.179688 911.09375 1260.171875 877.851563 1260.171875 Z M 809.765625 1260.171875 " transform="matrix(0.1,0,0,-0.1,0,222.65)"/>
<path style=" stroke:none;fill-rule:evenodd;fill:rgb(9.799194%,27.799988%,53.29895%);fill-opacity:1;" d="M 60.273438 87.660156 L 56.964844 87.660156 C 56.964844 88.792969 57.511719 89.65625 58.496094 89.65625 C 59.476563 89.65625 60.273438 88.792969 60.273438 87.777344 Z M 69.183594 89.695313 L 61.480469 89.695313 C 60.972656 90.714844 59.734375 91.394531 58.496094 91.394531 C 56.703125 91.394531 55.140625 89.847656 55.140625 87.964844 C 53.976563 87.660156 53.535156 87.167969 53.535156 86.570313 C 53.535156 85.964844 53.976563 85.480469 54.554688 85.480469 C 55.140625 83.332031 56.703125 81.78125 58.496094 81.78125 C 59.835938 81.78125 61.007813 82.648438 61.480469 83.855469 L 69.132813 83.855469 L 69.046875 73.761719 L 61.480469 73.761719 C 60.972656 74.695313 59.734375 75.421875 58.496094 75.421875 C 56.703125 75.421875 55.140625 73.910156 55.140625 72.0625 C 53.976563 71.726563 53.535156 71.191406 53.535156 70.671875 C 53.535156 69.992188 53.976563 69.503906 54.554688 69.503906 C 55.140625 67.394531 56.703125 65.84375 58.496094 65.84375 C 59.835938 65.84375 61.007813 66.675781 61.480469 67.914063 L 69 67.914063 L 68.949219 61.667969 L 71 60.25 C 59.199219 57.347656 51.164063 51.398438 45.082031 40.605469 L 45.082031 115.996094 C 50.890625 105.710938 58.496094 99.714844 69.238281 96.628906 Z M 60.273438 69.503906 C 60.273438 68.523438 59.476563 67.652344 58.496094 67.652344 C 57.511719 67.652344 56.964844 68.523438 56.964844 69.503906 Z M 60.273438 71.839844 L 56.964844 71.726563 C 56.964844 72.859375 57.511719 73.644531 58.496094 73.644531 C 59.476563 73.644531 60.273438 72.859375 60.273438 71.839844 M 56.964844 85.480469 L 60.273438 85.480469 C 60.273438 84.425781 59.476563 83.632813 58.496094 83.632813 C 57.511719 83.632813 56.964844 84.425781 56.964844 85.480469 "/>
<path style="fill:none;stroke-width:0.79;stroke-linecap:butt;stroke-linejoin:miter;stroke:rgb(9.799194%,27.799988%,53.29895%);stroke-opacity:1;stroke-miterlimit:3.864;" d="M 602.734375 1349.898438 L 569.648438 1349.898438 C 569.648438 1338.570313 575.117188 1329.9375 584.960938 1329.9375 C 594.765625 1329.9375 602.734375 1338.570313 602.734375 1348.726563 Z M 691.835938 1329.546875 L 614.804688 1329.546875 C 609.726563 1319.351563 597.34375 1312.554688 584.960938 1312.554688 C 567.03125 1312.554688 551.40625 1328.023438 551.40625 1346.851563 C 539.765625 1349.898438 535.351563 1354.820313 535.351563 1360.796875 C 535.351563 1366.851563 539.765625 1371.695313 545.546875 1371.695313 C 551.40625 1393.179688 567.03125 1408.6875 584.960938 1408.6875 C 598.359375 1408.6875 610.078125 1400.015625 614.804688 1387.945313 L 691.328125 1387.945313 L 690.46875 1488.882813 L 614.804688 1488.882813 C 609.726563 1479.546875 597.34375 1472.28125 584.960938 1472.28125 C 567.03125 1472.28125 551.40625 1487.398438 551.40625 1505.875 C 539.765625 1509.234375 535.351563 1514.585938 535.351563 1519.78125 C 535.351563 1526.578125 539.765625 1531.460938 545.546875 1531.460938 C 551.40625 1552.554688 567.03125 1568.0625 584.960938 1568.0625 C 598.359375 1568.0625 610.078125 1559.742188 614.804688 1547.359375 L 690 1547.359375 L 689.492188 1609.820313 L 710 1624 C 591.992188 1653.023438 511.640625 1712.515625 450.820313 1820.445313 L 450.820313 1066.539063 C 508.90625 1169.390625 584.960938 1229.351563 692.382813 1260.210938 Z M 602.734375 1531.460938 C 602.734375 1541.265625 594.765625 1549.976563 584.960938 1549.976563 C 575.117188 1549.976563 569.648438 1541.265625 569.648438 1531.460938 Z M 602.734375 1508.101563 L 569.648438 1509.234375 C 569.648438 1497.90625 575.117188 1490.054688 584.960938 1490.054688 C 594.765625 1490.054688 602.734375 1497.90625 602.734375 1508.101563 Z M 569.648438 1371.695313 L 602.734375 1371.695313 C 602.734375 1382.242188 594.765625 1390.171875 584.960938 1390.171875 C 575.117188 1390.171875 569.648438 1382.242188 569.648438 1371.695313 Z M 569.648438 1371.695313 " transform="matrix(0.1,0,0,-0.1,0,222.65)"/>
<path style=" stroke:none;fill-rule:evenodd;fill:rgb(69.799805%,57.598877%,27.099609%);fill-opacity:1;" d="M 77.785156 97.058594 C 59.917969 99.796875 49.171875 107.5625 43.042969 126.472656 L 43.042969 30.164063 C 49.140625 48.980469 59.898438 56.570313 77.621094 59.410156 C 74.480469 41.429688 67.082031 30.628906 49.125 24.324219 L 142.195313 24.324219 C 124.289063 30.628906 116.851563 41.410156 114.082031 59.375 C 131.667969 56.507813 142.320313 48.910156 148.394531 30.164063 L 148.394531 126.472656 C 142.296875 107.679688 131.609375 99.886719 113.929688 97.105469 C 116.570313 115.664063 123.917969 126.902344 142.195313 133.257813 L 49.089844 133.257813 C 67.421875 126.902344 74.765625 115.648438 77.785156 97.058594 M 24.023438 92.21875 C 24.023438 128.472656 55.832031 163.214844 95.660156 174.589844 C 135.5625 163.214844 167.378906 128.472656 167.378906 92.21875 L 167.378906 4.691406 L 24.023438 4.691406 L 24.023438 92.21875 "/>
<path style="fill:none;stroke-width:0.79;stroke-linecap:butt;stroke-linejoin:miter;stroke:rgb(69.799805%,57.598877%,27.099609%);stroke-opacity:1;stroke-miterlimit:3.864;" d="M 777.851563 1255.914063 C 599.179688 1228.53125 491.71875 1150.875 430.429688 961.773438 L 430.429688 1924.859375 C 491.40625 1736.695313 598.984375 1660.796875 776.210938 1632.398438 C 744.804688 1812.203125 670.820313 1920.210938 491.25 1983.257813 L 1421.953125 1983.257813 C 1242.890625 1920.210938 1168.515625 1812.398438 1140.820313 1632.75 C 1316.679688 1661.421875 1423.203125 1737.398438 1483.945313 1924.859375 L 1483.945313 961.773438 C 1422.96875 1149.703125 1316.09375 1227.632813 1139.296875 1255.445313 C 1165.703125 1069.859375 1239.179688 957.476563 1421.953125 893.921875 L 490.898438 893.921875 C 674.21875 957.476563 747.65625 1070.015625 777.851563 1255.914063 Z M 240.234375 1304.3125 C 240.234375 941.773438 558.320313 594.351563 956.601563 480.601563 C 1355.625 594.351563 1673.789063 941.773438 1673.789063 1304.3125 L 1673.789063 2179.585938 L 240.234375 2179.585938 Z M 240.234375 1304.3125 " transform="matrix(0.1,0,0,-0.1,0,222.65)"/>
<path style=" stroke:none;fill-rule:evenodd;fill:rgb(0.799561%,1.199341%,1.199341%);fill-opacity:1;" d="M 64.148438 192.398438 L 64.273438 192.789063 L 66.273438 193.621094 L 65.890625 192.398438 Z M 90.007813 206.347656 L 91.75 211.316406 L 88.1875 211.089844 Z M 84.46875 215.597656 L 86.578125 215.71875 L 87.667969 212.785156 L 92.261719 213.125 L 93.429688 216.25 L 95.535156 216.398438 L 91.058594 204.578125 L 88.949219 204.429688 Z M 106.601563 207.851563 C 106.304688 205.367188 104.199219 204.089844 101.652344 204.199219 C 98.195313 204.429688 96.1875 207.25 96.1875 210.59375 C 96.269531 213.835938 98.371094 216.46875 101.828125 216.25 C 104.636719 216.097656 106.5625 214.101563 106.675781 211.316406 L 104.707031 211.457031 C 104.5625 213.082031 103.578125 214.511719 101.765625 214.621094 C 99.28125 214.769531 98.230469 212.628906 98.230469 210.453125 C 98.195313 208.230469 99.179688 206.007813 101.652344 205.851563 C 103.363281 205.738281 104.199219 206.679688 104.5625 207.964844 L 106.601563 207.851563 "/>
<path style=" stroke:none;fill-rule:evenodd;fill:rgb(0.799561%,1.199341%,1.199341%);fill-opacity:1;" d="M 65.882813 192.398438 L 62.15625 180.671875 L 60.296875 179.957031 L 56.082031 189.777344 L 58.113281 190.570313 L 59.179688 187.789063 L 63.253906 189.449219 L 64.148438 192.398438 Z M 150.792969 172.242188 L 153.632813 170.585938 C 154.542969 170.058594 155.082031 170.207031 155.082031 171.347656 C 155.082031 172.324219 154.429688 173.257813 153.632813 173.746094 L 150.792969 175.332031 Z M 150.792969 176.753906 L 153.847656 175.027344 C 154.867188 174.429688 155.527344 174.6875 155.527344 175.820313 C 155.527344 176.910156 154.867188 177.925781 153.847656 178.496094 L 150.792969 180.265625 Z M 142.417969 176.945313 L 144.097656 181.089844 L 140.925781 182.519531 Z M 161.710938 165.578125 C 163.5 163.808594 164.585938 164.867188 164.957031 166.664063 C 165.28125 168.441406 164.839844 171 163.015625 172.769531 C 161.128906 174.546875 160.039063 173.488281 159.742188 171.597656 C 159.378906 169.835938 159.816406 167.347656 161.710938 165.578125 M 169.394531 160.503906 L 171.980469 158.503906 C 172.808594 157.863281 173.542969 157.496094 173.542969 158.917969 C 173.542969 160.042969 172.992188 161.066406 172.015625 161.925781 L 169.394531 163.878906 Z M 61.207031 182.371094 L 62.742188 187.710938 L 59.644531 186.433594 Z M 149.046875 182.894531 L 153.59375 180.265625 C 156.214844 178.867188 157.269531 176.828125 157.269531 175.027344 C 157.269531 173.523438 156.578125 172.84375 155.378906 173.222656 C 156.289063 172.207031 156.800781 171.082031 156.800781 169.984375 C 156.800781 168.101563 155.632813 167.882813 153.847656 168.855469 L 149.046875 171.597656 Z M 137.652344 188.648438 L 139.652344 187.710938 L 140.527344 184.285156 L 144.675781 182.371094 L 145.910156 184.777344 L 147.769531 183.910156 L 143.105469 174.648438 L 141.214844 175.523438 Z M 128.769531 192.082031 L 136.445313 188.953125 L 136.445313 187.226563 L 130.695313 189.554688 L 130.695313 180 L 128.769531 180.78125 Z M 161.378906 164.191406 C 158.800781 166.664063 157.75 170.398438 158.253906 173.109375 C 158.726563 175.820313 160.691406 176.578125 163.238281 174.089844 C 165.824219 171.597656 166.988281 167.910156 166.476563 165.28125 C 165.972656 162.53125 164.011719 161.738281 161.378906 164.191406 M 167.792969 170.738281 L 169.394531 169.492188 L 169.394531 165.015625 L 171.757813 163.140625 C 173.214844 162.042969 173.542969 162.605469 173.542969 164.644531 C 173.542969 165.125 173.542969 165.761719 173.800781 166.070313 L 175.507813 164.753906 C 175.179688 164.570313 175.03125 163.507813 175.03125 162.234375 C 175.03125 160.503906 174.230469 160.679688 173.683594 161.019531 C 173.980469 160.648438 175.179688 159.109375 175.179688 157.070313 C 175.179688 155.191406 174.164063 154.933594 172.15625 156.472656 L 167.792969 159.933594 Z M 176.742188 163.507813 L 182.5625 158.160156 L 182.5625 156.472656 L 178.164063 160.539063 L 178.164063 157.375 L 182.164063 153.71875 L 182.164063 152.175781 L 178.164063 155.828125 L 178.164063 153.007813 L 182.460938 148.976563 L 182.460938 147.359375 L 176.742188 152.597656 Z M 7.015625 153.835938 C 7.050781 156.628906 8.464844 158.917969 10.214844 160.160156 C 11.710938 161.214844 13.199219 161.289063 13.199219 158.769531 C 13.199219 157.605469 12.695313 155.9375 11.710938 154.851563 C 11.304688 154.367188 9.628906 152.5625 9.527344 152.367188 C 9.015625 151.761719 8.652344 151.050781 8.652344 150.265625 C 8.652344 149.167969 9.378906 149.398438 10.03125 149.769531 C 10.941406 150.449219 11.5625 151.464844 11.628906 153.007813 L 12.949219 153.910156 C 12.949219 151.582031 11.628906 149.398438 10.03125 148.226563 C 8.652344 147.25 7.304688 147.359375 7.304688 149.554688 C 7.304688 150.746094 7.703125 152.21875 8.976563 153.613281 L 11.238281 156.175781 C 11.5625 156.59375 11.851563 157.152344 11.851563 158.015625 C 11.851563 158.917969 11.386719 159.449219 10.253906 158.546875 C 9.199219 157.820313 8.324219 156.546875 8.324219 154.777344 Z M 21.46875 161.332031 C 21.28125 158.84375 19.90625 156.472656 18.042969 155.304688 C 15.601563 153.761719 14.183594 155.53125 14.183594 158.726563 C 14.183594 161.96875 15.601563 165.578125 18.042969 167.125 C 20.007813 168.367188 21.394531 167.390625 21.46875 164.753906 L 20.082031 163.851563 C 20.007813 165.433594 19.28125 166.339844 18.042969 165.464844 C 16.332031 164.378906 15.570313 161.777344 15.570313 159.636719 C 15.570313 157.496094 16.332031 155.792969 18.042969 156.917969 C 19.207031 157.671875 19.785156 158.992188 20.042969 160.464844 Z M 23.140625 170.695313 L 24.777344 171.828125 L 24.777344 160.761719 L 23.140625 159.636719 Z M 26.378906 173.148438 L 32.96875 177.585938 L 32.96875 175.851563 L 27.941406 172.511719 L 27.941406 169.199219 L 32.570313 172.207031 L 32.570313 170.585938 L 27.941406 167.585938 L 27.941406 164.605469 L 32.898438 167.910156 L 32.898438 166.183594 L 26.378906 161.925781 Z M 34.785156 178.636719 L 36.460938 179.6875 L 36.460938 171.347656 L 40.679688 182.222656 L 42.394531 183.234375 L 42.394531 171.789063 L 40.902344 170.925781 L 40.902344 179.285156 L 36.644531 168.480469 L 34.785156 167.390625 Z M 44.140625 174.429688 L 47.058594 175.894531 L 47.058594 185.347656 L 48.941406 186.433594 L 48.941406 176.984375 L 51.964844 178.457031 L 51.964844 176.726563 L 44.140625 172.769531 Z M 53.535156 188.53125 L 55.421875 189.40625 L 55.421875 178.339844 L 53.535156 177.433594 L 53.535156 188.53125 "/>
<path style=" stroke:none;fill-rule:nonzero;fill:rgb(0.799561%,1.199341%,1.199341%);fill-opacity:1;" d="M 188.371094 137.242188 C 172.230469 160.117188 135.675781 179.285156 109.839844 184.761719 L 126.273438 194.820313 C 151.304688 186.53125 175.0625 169.464844 188.371094 155.0625 Z M 108.265625 199.378906 C 113.660156 198.589844 117.195313 197.539063 123.171875 195.644531 L 108.265625 186.414063 Z M 83.125 186.414063 L 68.1875 195.644531 C 74.164063 197.539063 77.695313 198.589844 83.125 199.378906 Z M 2.957031 155.0625 C 16.289063 169.464844 40.089844 186.53125 65.050781 194.820313 L 81.480469 184.761719 C 55.652344 179.285156 19.101563 160.117188 2.957031 137.242188 Z M 66.109375 212.566406 C 74.050781 216.175781 84.40625 218.589844 95.660156 218.589844 C 106.957031 218.589844 117.3125 216.175781 125.214844 212.566406 L 125.214844 197.457031 C 115.269531 200.621094 105.066406 202.429688 95.660156 202.429688 C 86.296875 202.429688 76.050781 200.621094 66.109375 197.457031 Z M 168.425781 175.265625 L 166.132813 176.886719 C 161.1875 180.316406 155.898438 183.628906 150.394531 186.636719 L 150.394531 192.902344 C 150.394531 192.902344 160.351563 186.53125 164.898438 183.332031 C 167.628906 181.367188 168.253906 179.597656 168.394531 176.886719 Z M 20.835938 152.289063 L 20.851563 135.480469 L 4.925781 135.511719 C 9.613281 141.695313 14.976563 147.273438 20.835938 152.289063 M 40.222656 165.9375 C 39.71875 164.308594 38.910156 162.753906 37.6875 160.871094 L 22.964844 138.753906 L 22.964844 154.0625 C 28.371094 158.480469 34.179688 162.429688 40.222656 165.9375 M 22.925781 175.25 L 22.992188 176.886719 C 23.074219 179.597656 23.734375 181.367188 26.460938 183.332031 C 30.984375 186.53125 40.964844 192.902344 40.964844 192.902344 L 40.964844 186.621094 C 35.480469 183.613281 30.199219 180.308594 25.253906 176.886719 Z M 170.476563 135.480469 L 170.476563 152.308594 C 176.351563 147.300781 181.734375 141.710938 186.4375 135.511719 Z M 148.972656 167.167969 C 149.207031 164.429688 150.1875 162.148438 152.335938 158.605469 C 155.425781 153.601563 169.425781 133.257813 169.425781 133.257813 L 190.511719 133.257813 L 190.511719 156.015625 C 185.371094 161.652344 178.503906 167.804688 170.578125 173.6875 C 170.578125 173.6875 170.578125 176.472656 170.511719 176.886719 C 170.253906 180.992188 168.941406 183.140625 166.617188 184.761719 C 163.261719 187.058594 156.699219 191.734375 148.394531 196.40625 L 148.394531 187.71875 C 141.59375 191.324219 134.488281 194.460938 127.324219 196.8125 L 127.324219 213.878906 C 118.550781 217.882813 108.785156 220.480469 95.660156 220.480469 C 82.613281 220.480469 72.777344 217.882813 64.03125 213.878906 L 64.03125 196.8125 C 56.867188 194.441406 49.757813 191.304688 42.925781 187.679688 L 42.925781 196.40625 C 34.660156 191.734375 28.140625 187.058594 24.746094 184.761719 C 22.421875 183.140625 21.066406 180.992188 20.851563 176.886719 L 20.808594 173.710938 C 12.835938 167.820313 6 161.65625 0.84375 156.015625 L 0.84375 133.257813 L 21.976563 133.257813 C 21.976563 133.257813 35.96875 153.601563 39.066406 158.605469 C 41.222656 162.191406 42.179688 164.492188 42.59375 167.289063 C 49.296875 171.007813 56.269531 174.191406 63.339844 176.886719 C 70.554688 179.636719 77.882813 181.894531 85.132813 183.671875 L 85.132813 199.605469 C 88.488281 199.902344 92.933594 200.28125 95.660156 200.28125 C 98.394531 200.28125 102.835938 199.902344 106.230469 199.605469 L 106.230469 183.671875 C 113.480469 181.894531 120.808594 179.636719 128.023438 176.886719 C 135.171875 174.160156 142.222656 170.933594 148.972656 167.167969 M 168.394531 154.050781 L 168.394531 138.753906 L 153.710938 160.871094 C 152.46875 162.753906 151.652344 164.304688 151.148438 165.925781 C 157.195313 162.414063 162.988281 158.464844 168.394531 154.050781 "/>
<path style=" stroke:none;fill-rule:nonzero;fill:rgb(0.799561%,1.199341%,1.199341%);fill-opacity:1;" d="M 24.023438 92.21875 C 24.023438 128.472656 55.832031 163.207031 95.660156 174.585938 C 135.570313 163.207031 167.378906 128.472656 167.378906 92.21875 L 167.378906 4.691406 L 24.023438 4.691406 Z M 169.460938 92.753906 C 169.460938 130.015625 135.9375 165.769531 95.660156 176.84375 C 55.46875 165.769531 21.941406 130.015625 21.941406 92.753906 L 21.941406 2.511719 L 169.460938 2.511719 L 169.460938 92.753906 "/>
<path style=" stroke:none;fill-rule:nonzero;fill:rgb(0.799561%,1.199341%,1.199341%);fill-opacity:1;" d="M 60.273438 71.839844 L 56.964844 71.722656 C 56.964844 72.851563 57.511719 73.644531 58.496094 73.644531 C 59.476563 73.644531 60.273438 72.851563 60.273438 71.839844 M 60.273438 69.503906 C 60.273438 68.523438 59.476563 67.65625 58.496094 67.65625 C 57.511719 67.65625 56.964844 68.523438 56.964844 69.503906 Z M 112.253906 59.324219 C 114.121094 43.910156 119.949219 33.773438 132.140625 26.507813 L 59.222656 26.507813 C 71.363281 33.769531 77.183594 43.886719 79.386719 59.261719 C 81.71875 58.832031 84.363281 58.199219 87.570313 58.199219 C 91.578125 58.199219 94.386719 59.554688 95.660156 62.074219 C 96.652344 59.554688 99.742188 58.199219 103.785156 58.199219 C 107.132813 58.199219 109.84375 58.890625 112.253906 59.324219 M 122.179688 96.628906 C 132.910156 99.714844 140.535156 105.707031 146.320313 116 L 146.320313 40.601563 C 140.1875 51.539063 131.992188 57.5 120.480469 60.359375 L 122.40625 61.667969 L 122.40625 67.886719 L 132.066406 67.878906 C 134.585938 67.878906 136.222656 68.371094 136.222656 70.480469 C 136.222656 72.96875 134.949219 73.757813 132.609375 73.757813 L 122.40625 73.757813 L 122.40625 83.855469 L 132.066406 83.855469 C 134.585938 83.855469 136.222656 84.308594 136.222656 86.453125 C 136.222656 88.90625 134.949219 89.695313 132.609375 89.695313 L 122.40625 89.695313 L 122.40625 96.628906 Z M 77.785156 97.058594 C 59.917969 99.796875 49.171875 107.5625 43.042969 126.472656 L 43.042969 30.164063 C 49.140625 48.980469 59.898438 56.570313 77.613281 59.410156 C 74.480469 41.429688 67.082031 30.628906 49.125 24.324219 L 142.199219 24.324219 C 124.289063 30.628906 116.851563 41.410156 114.082031 59.375 C 131.660156 56.507813 142.3125 48.910156 148.394531 30.164063 L 148.394531 126.472656 C 142.296875 107.671875 131.601563 99.886719 113.929688 97.105469 C 116.578125 115.664063 123.917969 126.902344 142.199219 133.257813 L 49.089844 133.257813 C 67.414063 126.902344 74.765625 115.640625 77.785156 97.058594 M 80.976563 96.628906 L 79.578125 96.800781 C 77.535156 112.988281 71.734375 123.628906 59.222656 131.140625 L 132.140625 131.140625 C 119.609375 123.644531 113.800781 113.003906 112.066406 96.839844 L 110.425781 96.628906 L 103.644531 96.628906 C 100.253906 96.628906 100.652344 98.324219 95.660156 98.324219 C 90.675781 98.324219 91.105469 96.628906 87.785156 96.628906 Z M 69.183594 89.695313 L 61.480469 89.695313 C 60.972656 90.714844 59.734375 91.394531 58.496094 91.394531 C 56.703125 91.394531 55.140625 89.847656 55.140625 87.964844 C 53.976563 87.660156 53.535156 87.175781 53.535156 86.570313 C 53.535156 85.96875 53.976563 85.476563 54.554688 85.476563 C 55.140625 83.332031 56.703125 81.78125 58.496094 81.78125 C 59.835938 81.78125 61.007813 82.652344 61.480469 83.855469 L 69.132813 83.855469 L 69.046875 73.757813 L 61.480469 73.757813 C 60.972656 74.695313 59.734375 75.421875 58.496094 75.421875 C 56.703125 75.421875 55.140625 73.910156 55.140625 72.066406 C 53.976563 71.722656 53.535156 71.191406 53.535156 70.671875 C 53.535156 69.996094 53.976563 69.503906 54.554688 69.503906 C 55.140625 67.394531 56.703125 65.84375 58.496094 65.84375 C 59.835938 65.84375 61.007813 66.671875 61.480469 67.914063 L 69 67.914063 L 68.949219 61.667969 L 71 60.257813 C 59.199219 57.351563 51.164063 51.40625 45.082031 40.601563 L 45.082031 116 C 50.890625 105.707031 58.496094 99.714844 69.238281 96.628906 Z M 60.273438 87.660156 L 56.964844 87.660156 C 56.964844 88.789063 57.511719 89.65625 58.496094 89.65625 C 59.476563 89.65625 60.273438 88.789063 60.273438 87.777344 Z M 56.964844 85.476563 L 60.273438 85.476563 C 60.273438 84.425781 59.476563 83.632813 58.496094 83.632813 C 57.511719 83.632813 56.964844 84.425781 56.964844 85.476563 "/>
<path style=" stroke:none;fill-rule:evenodd;fill:rgb(100%,100%,100%);fill-opacity:1;" d="M 116.289063 90.941406 L 105.867188 90.941406 C 100.910156 90.941406 100.109375 91.132813 96.683594 92.5625 L 96.683594 65.203125 C 96.683594 62.230469 99.742188 60.429688 103.785156 60.429688 C 109.761719 60.429688 112.972656 62.382813 116.289063 61.738281 L 116.289063 90.941406 "/>
<path style=" stroke:none;fill-rule:nonzero;fill:rgb(100%,100%,100%);fill-opacity:1;" d="M 94.609375 92.5625 C 91.179688 91.203125 90.414063 90.9375 85.496094 90.9375 L 75 90.9375 L 75 61.742188 C 78.386719 62.378906 81.59375 60.421875 87.570313 60.421875 C 91.578125 60.421875 94.609375 62.226563 94.609375 65.207031 L 94.609375 92.5625 "/>
<path style=" stroke:none;fill-rule:nonzero;fill:rgb(100%,100%,100%);fill-opacity:1;" d="M 95.660156 96.367188 C 100.652344 96.367188 100.253906 94.488281 103.570313 94.488281 L 120.410156 94.488281 L 120.410156 63.136719 L 118.4375 61.699219 L 118.4375 92.785156 L 104.769531 92.785156 C 98.757813 92.785156 100.765625 94.667969 95.660156 94.667969 C 91.179688 94.667969 92.933594 92.785156 86.59375 92.785156 L 72.917969 92.785156 L 72.917969 61.699219 L 70.917969 63.136719 L 70.917969 94.488281 L 87.785156 94.488281 C 91.105469 94.488281 90.675781 96.367188 95.660156 96.367188 "/>
</g>
</svg>
